<svg xmlns="http://www.w3.org/2000/svg" xmlns:xlink="http://www.w3.org/1999/xlink" id="svg318" viewBox="11.29428252136752 149.4528 1353.368945868946 704.452" version="1.2" style="max-height: 500px" width="1353.368945868946" height="704.452">
  <title id="title1">4635570_2464140-ai</title>
  <defs id="defs46">
    <linearGradient id="linearGradient323">
      <stop id="stop323" offset="0" style="stop-color:#34d145;stop-opacity:1;"/>
      <stop id="stop324" offset="1" style="stop-color:#000000;stop-opacity:0;"/>
    </linearGradient>
    <linearGradient gradientTransform="matrix(66.846,0,0,37.94,804.825,400.662)" gradientUnits="userSpaceOnUse" x2="1" id="g2">
      <stop id="stop3" stop-opacity=".1" stop-color="#b4bbe1" offset="0"/>
      <stop id="stop4" stop-opacity=".3" stop-color="#b4bbe1" offset="1"/>
    </linearGradient>
    <clipPath id="cp1" clipPathUnits="userSpaceOnUse">
      <path id="path4" d="m 838.25,332.18 c -23.63,0 -40.1,-10.64 -40.1,-20.18 0,-9.54 -10.68,-149.02 60.76,-144.21 23.57,1.59 19.44,134.67 19.44,144.21 0,9.54 -16.47,20.18 -40.1,20.18 z"/>
    </clipPath>
    <linearGradient gradientTransform="matrix(-109.084,62.98,-18.979,-32.872,781.027,496.043)" gradientUnits="userSpaceOnUse" x2="1" id="g3">
      <stop id="stop5" stop-opacity=".1" stop-color="#b4bbe1" offset="0"/>
      <stop id="stop6" stop-opacity=".3" stop-color="#b4bbe1" offset="1"/>
    </linearGradient>
    <linearGradient gradientTransform="matrix(-109.084,62.979,-18.979,-32.872,838.803,506.402)" gradientUnits="userSpaceOnUse" x2="1" id="g4">
      <stop id="stop7" stop-opacity=".1" stop-color="#b4bbe1" offset="0"/>
      <stop id="stop8" stop-opacity=".3" stop-color="#b4bbe1" offset="1"/>
    </linearGradient>
    <linearGradient gradientTransform="matrix(439.538,0,0,252.936,725.737,467.164)" gradientUnits="userSpaceOnUse" x2="1" id="g5">
      <stop id="stop9" stop-opacity=".1" stop-color="#b4bbe1" offset="0"/>
      <stop id="stop10" stop-opacity=".3" stop-color="#b4bbe1" offset="1"/>
    </linearGradient>
    <linearGradient gradientTransform="matrix(104.897,0,0,30.33,1020.977,520.454)" gradientUnits="userSpaceOnUse" x2="1" id="g6">
      <stop id="stop11" stop-color="#ced5ef" offset="0"/>
      <stop id="stop12" stop-color="#dae3f2" offset=".865"/>
    </linearGradient>
    <linearGradient gradientTransform="matrix(104.86,0,0,30.33,1003.933,530.245)" gradientUnits="userSpaceOnUse" x2="1" id="g7">
      <stop id="stop13" stop-color="#ced5ef" offset="0"/>
      <stop id="stop14" stop-color="#dae3f2" offset=".865"/>
    </linearGradient>
    <linearGradient gradientTransform="matrix(104.86,0,0,30.349,986.888,540.017)" gradientUnits="userSpaceOnUse" x2="1" id="g8">
      <stop id="stop15" stop-color="#ced5ef" offset="0"/>
      <stop id="stop16" stop-color="#dae3f2" offset=".865"/>
    </linearGradient>
    <linearGradient gradientTransform="matrix(104.841,0,0,30.349,970.032,549.714)" gradientUnits="userSpaceOnUse" x2="1" id="g9">
      <stop id="stop17" stop-color="#ced5ef" offset="0"/>
      <stop id="stop18" stop-color="#dae3f2" offset=".865"/>
    </linearGradient>
    <linearGradient gradientTransform="matrix(104.822,0,0,30.349,952.95,559.523)" gradientUnits="userSpaceOnUse" x2="1" id="g10">
      <stop id="stop19" stop-color="#ced5ef" offset="0"/>
      <stop id="stop20" stop-color="#dae3f2" offset=".865"/>
    </linearGradient>
    <linearGradient gradientTransform="matrix(104.822,0,0,30.368,934.891,569.877)" gradientUnits="userSpaceOnUse" x2="1" id="g11">
      <stop id="stop21" stop-color="#ced5ef" offset="0"/>
      <stop id="stop22" stop-color="#dae3f2" offset=".865"/>
    </linearGradient>
    <linearGradient gradientTransform="matrix(104.784,0,0,30.368,917.677,579.781)" gradientUnits="userSpaceOnUse" x2="1" id="g12">
      <stop id="stop23" stop-color="#ced5ef" offset="0"/>
      <stop id="stop24" stop-color="#dae3f2" offset=".865"/>
    </linearGradient>
    <linearGradient gradientTransform="matrix(104.822,0,0,30.349,900.464,589.647)" gradientUnits="userSpaceOnUse" x2="1" id="g13">
      <stop id="stop25" stop-color="#ced5ef" offset="0"/>
      <stop id="stop26" stop-color="#dae3f2" offset=".865"/>
    </linearGradient>
    <linearGradient gradientTransform="matrix(119.078,0,0,73.161,889.316,444.997)" gradientUnits="userSpaceOnUse" x2="1" id="g14">
      <stop id="stop27" stop-color="#ced5ef" offset="0"/>
      <stop id="stop28" stop-color="#dae3f2" offset=".865"/>
    </linearGradient>
    <linearGradient gradientTransform="matrix(119.02,0,0,73.189,872.424,454.698)" gradientUnits="userSpaceOnUse" x2="1" id="g15">
      <stop id="stop29" stop-color="#ced5ef" offset="0"/>
      <stop id="stop30" stop-color="#dae3f2" offset=".865"/>
    </linearGradient>
    <linearGradient gradientTransform="matrix(119.096,0,0,73.151,855.197,464.59)" gradientUnits="userSpaceOnUse" x2="1" id="g16">
      <stop id="stop31" stop-color="#ced5ef" offset="0"/>
      <stop id="stop32" stop-color="#dae3f2" offset=".865"/>
    </linearGradient>
    <linearGradient gradientTransform="matrix(119.039,0,0,73.17,838.2,474.357)" gradientUnits="userSpaceOnUse" x2="1" id="g17">
      <stop id="stop33" stop-color="#ced5ef" offset="0"/>
      <stop id="stop34" stop-color="#dae3f2" offset=".865"/>
    </linearGradient>
    <linearGradient gradientTransform="matrix(119.049,0,0,73.17,821.059,484.192)" gradientUnits="userSpaceOnUse" x2="1" id="g18">
      <stop id="stop35" stop-color="#ced5ef" offset="0"/>
      <stop id="stop36" stop-color="#dae3f2" offset=".865"/>
    </linearGradient>
    <linearGradient gradientTransform="matrix(119.03,0,0,73.189,804.061,493.959)" gradientUnits="userSpaceOnUse" x2="1" id="g19">
      <stop id="stop37" stop-color="#ced5ef" offset="0"/>
      <stop id="stop38" stop-color="#dae3f2" offset=".865"/>
    </linearGradient>
    <linearGradient gradientTransform="matrix(119.058,0,0,73.17,786.968,503.775)" gradientUnits="userSpaceOnUse" x2="1" id="g20">
      <stop id="stop39" stop-color="#ced5ef" offset="0"/>
      <stop id="stop40" stop-color="#dae3f2" offset=".865"/>
    </linearGradient>
    <linearGradient gradientTransform="matrix(119.03,0,0,73.18,769.846,513.6)" gradientUnits="userSpaceOnUse" x2="1" id="g21">
      <stop id="stop41" stop-color="#ced5ef" offset="0"/>
      <stop id="stop42" stop-color="#dae3f2" offset=".865"/>
    </linearGradient>
    <linearGradient gradientTransform="matrix(149.385,0,0,85.84,1027.444,643.041)" gradientUnits="userSpaceOnUse" x2="1" id="g22">
      <stop id="stop43" stop-opacity=".1" stop-color="#b4bbe1" offset="0"/>
      <stop id="stop44" stop-opacity=".3" stop-color="#b4bbe1" offset="1"/>
    </linearGradient>
    <linearGradient gradientTransform="matrix(74.681,0,0,42.967,993.383,512.067)" gradientUnits="userSpaceOnUse" x2="1" id="g23">
      <stop id="stop45" stop-opacity=".1" stop-color="#b4bbe1" offset="0"/>
      <stop id="stop46" stop-opacity=".3" stop-color="#b4bbe1" offset="1"/>
    </linearGradient>
    <linearGradient gradientUnits="userSpaceOnUse" y2="489.88123" x2="1278.275" y1="489.88123" x1="85.675034" id="linearGradient324" xlink:href="#linearGradient323"/>
    <linearGradient gradientTransform="matrix(0.88249891,0,0,1.0000969,69.640299,14.073922)" y2="489.88123" x2="1278.275" y1="489.88123" x1="85.675034" gradientUnits="userSpaceOnUse" id="linearGradient326" xlink:href="#linearGradient323"/>
    <linearGradient gradientTransform="translate(0,16.685193)" y2="489.88123" x2="1278.275" y1="489.88123" x1="85.675034" gradientUnits="userSpaceOnUse" id="linearGradient327" xlink:href="#linearGradient323"/>
    <linearGradient y2="489.88123" x2="1278.275" y1="489.88123" x1="85.675034" gradientUnits="userSpaceOnUse" id="linearGradient328" xlink:href="#linearGradient323"/>
    <linearGradient y2="489.88123" x2="1278.275" y1="489.88123" x1="85.675034" gradientUnits="userSpaceOnUse" id="linearGradient329" xlink:href="#linearGradient323"/>
    <linearGradient y2="489.88123" x2="1278.275" y1="489.88123" x1="85.675034" gradientUnits="userSpaceOnUse" id="linearGradient330" xlink:href="#linearGradient323"/>
    <linearGradient y2="489.88123" x2="1278.275" y1="489.88123" x1="85.675034" gradientUnits="userSpaceOnUse" id="linearGradient331" xlink:href="#linearGradient323"/>
    <linearGradient y2="489.88123" x2="1278.275" y1="489.88123" x1="85.675034" gradientUnits="userSpaceOnUse" id="linearGradient332" xlink:href="#linearGradient323"/>
    <linearGradient y2="489.88123" x2="1278.275" y1="489.88123" x1="85.675034" gradientUnits="userSpaceOnUse" id="linearGradient333" xlink:href="#linearGradient323"/>
  </defs>
  <style id="style46">
		tspan { white-space:pre } 
		.s0 { fill: url(#g1) } 
		.s1 { fill: #ffffff } 
		.s2 { opacity: .3;fill: #d2e0f9 } 
		.s3 { fill: #945915 } 
		.s4 { fill: #874c12 } 
		.s5 { fill: #ffcb24 } 
		.s6 { fill: #f9b800 } 
		.s7 { fill: #ffd357 } 
		.s8 { fill: #fbc006 } 
		.s9 { fill: #f7a500 } 
		.s10 { fill: #ffd96e } 
		.s11 { fill: #c5a600 } 
		.s12 { fill: #ed8406 } 
		.s13 { fill: #205ce1 } 
		.s14 { fill: #0a2982 } 
		.s15 { fill: url(#g2) } 
		.s16 { fill: #347ee7 } 
		.s17 { fill: #206fce } 
		.s18 { fill: #d0dcfe } 
		.s19 { fill: #272c91 } 
		.s20 { fill: #fd9220 } 
		.s21 { fill: #9a98ed } 
		.s22 { fill: url(#g3) } 
		.s23 { fill: #2875df } 
		.s24 { fill: #75bcfc } 
		.s25 { fill: #4594f4 } 
		.s26 { fill: #347ee8 } 
		.s27 { fill: #fcc106 } 
		.s28 { fill: #205ce2 } 
		.s29 { fill: url(#g4) } 
		.s30 { fill: #b4bbe1 } 
		.s31 { fill: #dae3f2 } 
		.s32 { fill: #ced2ef } 
		.s33 { fill: #c5c8e8 } 
		.s34 { fill: #ff9906 } 
		.s35 { fill: #ef770a } 
		.s36 { fill: none;stroke: #ffffff;stroke-linecap: round;stroke-linejoin: round;stroke-width: 6.3 } 
		.s37 { fill: #266fc6 } 
		.s38 { fill: #4c96ed } 
		.s39 { fill: url(#g5) } 
		.s40 { fill: #80b4ff } 
		.s41 { fill: #4588ff } 
		.s42 { fill: #f5f5f5 } 
		.s43 { fill: #e2e2e2 } 
		.s44 { fill: url(#g6) } 
		.s45 { fill: url(#g7) } 
		.s46 { fill: url(#g8) } 
		.s47 { fill: url(#g9) } 
		.s48 { fill: url(#g10) } 
		.s49 { fill: url(#g11) } 
		.s50 { fill: url(#g12) } 
		.s51 { fill: url(#g13) } 
		.s52 { fill: url(#g14) } 
		.s53 { fill: url(#g15) } 
		.s54 { fill: url(#g16) } 
		.s55 { fill: url(#g17) } 
		.s56 { fill: url(#g18) } 
		.s57 { fill: url(#g19) } 
		.s58 { fill: url(#g20) } 
		.s59 { fill: url(#g21) } 
		.s60 { fill: #6ce3ff } 
		.s61 { opacity: .5;fill: #898989 } 
		.s62 { fill: #2a3049 } 
		.s63 { fill: #22293f } 
		.s64 { fill: #3a3d51 } 
		.s65 { fill: #ffe1bd } 
		.s66 { fill: #333647 } 
		.s67 { fill: #2d537a } 
		.s68 { fill: #2eed89 } 
		.s69 { fill: #41f28d } 
		.s70 { fill: #27e076 } 
		.s71 { fill: #f9a208 } 
		.s72 { opacity: .3;mix-blend-mode: multiply;fill: #eda38c } 
		.s73 { fill: #4b9cb5 } 
		.s74 { fill: #48c8ef } 
		.s75 { fill: #85eeff } 
		.s76 { fill: #b3e8f4 } 
		.s77 { fill: #5aafd1 } 
		.s78 { opacity: .2;fill: #ffffff } 
		.s79 { fill: url(#g22) } 
		.s80 { fill: #3081e2 } 
		.s81 { fill: #595959 } 
		.s82 { fill: #242733 } 
		.s83 { fill: #2268bc } 
		.s84 { fill: #f2ba88 } 
		.s85 { fill: #ffd1a4 } 
		.s86 { fill: #3a3a3a } 
		.s87 { fill: #1c2235 } 
		.s88 { fill: #97a2ce } 
		.s89 { fill: #8792b2 } 
		.s90 { opacity: .5;mix-blend-mode: multiply;fill: #b4bbe1 } 
		.s91 { opacity: .2;mix-blend-mode: screen;fill: url(#g23) } 
		.s92 { opacity: .6;fill: #ffffff } 
		.s93 { fill: #81c5e8 } 
		.s94 { fill: #cdd5f7 } 
		.s95 { fill: #2d2d2d } 
		.s96 { opacity: .7;fill: #205ce2 } 
		.s97 { fill: #cccccc } 
		.s98 { fill: #165bd6 } 
		.s99 { fill: #713e23 } 
		.s100 { fill: none;stroke: #381e1e;stroke-miterlimit:10;stroke-width: 1.3 } 
		.s101 { fill: #474747 } 
		.s102 { fill: #442312 } 
		.s103 { fill: #ffd04d } 
		.s104 { fill: #f9fbfc } 
	</style>
  <g style="fill:none;fill-opacity:1" id="BACKGROUND">
    <path style="fill:none;fill-opacity:1" d="M 1424,0 V 1000 H -76 V 0 Z" class="s0" id="&lt;Path&gt;"/>
  </g>
  <g transform="translate(159.26045,-63.936681)" id="OBJECTS">
    <g style="stroke:url(#linearGradient324);stroke-width:0.999534;stroke-dasharray:none" transform="matrix(1.2241391,0,0,0.93995505,-258.36132,90.485369)" id="g50">
      <g transform="translate(0,14.11824)" style="opacity:0.5;stroke:url(#linearGradient333);stroke-width:0.999534;stroke-dasharray:none" id="&lt;Group&gt;"/>
      <path style="stroke:url(#linearGradient327);stroke-width:0.999534;stroke-dasharray:none" d="m 1278.275,125.44768 v 763.4 H 85.67503 v -763.4 z" class="s1" id="path46"/>
      <path style="fill:#133eaa;fill-opacity:1;stroke:url(#linearGradient326);stroke-width:0.939022;stroke-dasharray:none" d="m 689.33103,121.68435 c 0,0 60.80418,74.70724 17.20873,153.31486 -45.18394,81.70792 -144.90632,140.41361 -103.95837,338.63282 22.15072,107.21039 148.52457,229.92228 301.37338,203.91976 181.61823,-30.903 215.77103,-157.61528 292.28363,-120.11164 v -575.7558 z" class="s2" id="path47"/>
      <g transform="translate(0,14.11824)" style="stroke:url(#linearGradient332);stroke-width:0.999534;stroke-dasharray:none" id="g49">
        <g style="stroke:url(#linearGradient328);stroke-width:0.999534;stroke-dasharray:none" id="g47"/>
        <g style="stroke:url(#linearGradient331);stroke-width:0.999534;stroke-dasharray:none" id="g48">
          <text style="stroke:url(#linearGradient329);stroke-width:0.999534;stroke-dasharray:none" id=""/>
          <text style="stroke:url(#linearGradient330);stroke-width:0.999534;stroke-dasharray:none" id="text47"/>
        </g>
      </g>
    </g>
    <g transform="matrix(0.85244825,0,0,0.81613968,9.06117,164.13792)" id="g73">
      <path d="m 1088,463.8 v 40.9 c 0,4.9 -4.1,9.4 -10.9,12.8 -7.2,3.5 -17.5,5.7 -28.8,5.7 -21.9,0 -39.6,-8.3 -39.6,-18.5 v -40.9 z" class="s3" id="path50"/>
      <path d="m 1088,463.8 v 40.9 c 0,4.9 -4.1,9.4 -10.9,12.8 v -40.9 l 2.1,-10.9 1.9,-1.9 z" class="s4" id="path51"/>
      <path d="m 1088,463.8 c 0,5 -4.1,9.4 -10.9,12.8 -7.2,3.5 -17.5,5.8 -28.8,5.8 -21.9,0 -39.6,-8.4 -39.6,-18.6 q 0,-1.5 0.4,-2.9 l 4.5,-14.2 8.9,3 c 6.9,-2.8 15.9,-4.5 25.8,-4.5 8.2,0 15.9,1.2 22.2,3.2 q 1.9,0.6 3.7,1.3 l 9.1,-2.4 4.2,13.6 q 0.5,1.4 0.5,2.9 z" class="s5" id="path52"/>
      <path d="m 1088,463.8 c 0,5 -4.1,9.4 -10.9,12.8 l -6.4,-25.6 c 0,0 -0.1,-1.1 -0.2,-2.6 q 1.9,0.6 3.7,1.3 l 9.1,-2.4 4.2,13.6 q 0.5,1.4 0.5,2.9 z" class="s6" id="path53"/>
      <path d="m 1083.6,449.7 c 0,9.1 -15.8,16.5 -35.3,16.5 -19.5,0 -35.3,-7.4 -35.3,-16.5 0,-9.1 15.8,-16.5 35.3,-16.5 19.5,0 35.3,7.4 35.3,16.5 z" class="s7" id="path54"/>
      <path d="m 1048.2,448.2 c -5.5,0 -10,-4.5 -10,-10 v -41.9 h 20 v 41.9 c 0,5.5 -4.5,10 -10,10 z" class="s8" id="path55"/>
      <path d="m 1058.2,396.3 v 41.9 c 0,5.3 -4.1,9.6 -9.2,10 2.1,-1.8 3.3,-4.5 3.3,-7.4 v -41.9 h -14.1 v -2.6 z" class="s9" id="path56"/>
      <path d="m 1107.8,295 v 68.2 c 0,32.8 -26.6,59.5 -59.5,59.5 -3.3,0 -6.6,-0.3 -9.7,-0.9 -10.7,-1.7 -20.3,-6.2 -28.2,-12.8 -13.2,-11 -21.5,-27.4 -21.5,-45.8 V 295 Z" class="s5" id="path57"/>
      <path d="m 1038.6,421.8 c -10.7,-1.7 -20.3,-6.2 -28.2,-12.8 -8.3,-10.2 -13.2,-23.2 -13.2,-37.3 v -68.2 h 13.8 v 68.2 c 0,21.1 11,39.6 27.6,50.1 z" class="s10" id="path58"/>
      <path d="m 1107.8,295 v 68.2 c 0,28.7 -20.4,52.7 -47.5,58.3 15.1,-10.8 25,-28.5 25,-48.5 V 304.8 H 988.9 V 295 Z" class="s6" id="path59"/>
      <path d="m 1107.8,295 c 0,10.3 -26.6,18.7 -59.5,18.7 -32.8,0 -59.4,-8.4 -59.4,-18.7 0,-10.3 26.6,-18.6 59.4,-18.6 32.9,0 59.5,8.3 59.5,18.6 z" class="s10" id="path60"/>
      <path d="m 1103.3,295 c 0,9.2 -24.6,16.6 -55,16.6 -30.5,0 -55.1,-7.4 -55.1,-16.6 0,-9.1 24.6,-16.5 55.1,-16.5 30.4,0 55,7.4 55,16.5 z" class="s11" id="path61"/>
      <path d="m 1048.3,488 q 0.8,0 1.5,0 v 19.2 q -0.7,0 -1.5,0 c -15.3,0 -28.6,-4 -35.2,-10 V 478 c 6.6,5.9 19.9,10 35.2,10 z" class="s5" id="path62"/>
      <g id="g72">
        <g id="g65">
          <g id="g64">
            <path d="m 954.4,369.8 c 0,1.4 -2.4,2.5 -5.5,2.5 -3.1,0.1 -5.6,-1 -5.6,-2.4 0,-1.4 2.5,-2.5 5.5,-2.5 3.1,-0.1 5.6,1 5.6,2.4 z" class="s12" id="path63"/>
            <path d="m 943.1,347.1 0.2,22.8 11.1,-0.1 -0.2,-22.8 z" class="s12" id="path64"/>
          </g>
          <path d="m 954.2,347 c 0,1.4 -2.4,2.5 -5.5,2.5 -3.1,0 -5.6,-1 -5.6,-2.4 0,-1.4 2.5,-2.5 5.5,-2.5 3.1,-0.1 5.6,1 5.6,2.4 z" class="s8" id="path65"/>
        </g>
        <g id="g70">
          <path d="m 972.1,305.2 c 0,0 10.8,19.2 13.9,24.8 3.2,5.5 33.7,18.5 72.2,-10.9 17.5,-13.1 24.2,-35.2 20.3,-42 -3.8,-6.9 -16.4,-29.1 -16.4,-29.1 z" class="s13" id="path66"/>
          <path d="m 939.7,311.2 103.9,3.6 49,-88.3 -104.2,-3.7 z" class="s14" id="path67"/>
          <path d="m 1090,221.9 2.6,4.6 -5.7,3.2 -3.8,-1.6 z" class="s14" id="path68"/>
          <path d="m 937.1,306.6 2.6,4.6 7.8,-7.5 z" class="s14" id="path69"/>
          <path d="m 937.1,306.6 103.9,3.6 49,-88.3 -104.2,-3.6 z" class="s13" id="path70"/>
        </g>
        <g id="g71">
          <path d="m 948.8,348 c -0.6,0 -1,-0.5 -1,-1.1 l -0.1,-40.3 c 0,-0.4 0.2,-0.7 0.5,-0.9 l 63.7,-45.3 c 0.5,-0.3 1.1,-0.2 1.5,0.2 0.3,0.5 0.2,1.1 -0.3,1.5 l -63.3,45 v 39.8 c 0,0.6 -0.4,1.1 -1,1.1 z" class="s8" id="path71"/>
        </g>
        <path d="m 1018.3,261.5 c -0.3,3.2 -3.2,5.6 -6.5,5.3 -3.3,-0.4 -5.7,-3.3 -5.3,-6.6 0.3,-3.2 3.3,-5.6 6.5,-5.3 3.3,0.4 5.7,3.3 5.3,6.6 z" class="s14" id="path72"/>
      </g>
    </g>
    <g transform="matrix(0.85244825,0,0,0.81613968,9.06117,164.13792)" id="g101">
      <g id="g79">
        <path style="fill:url(#g2)" d="m 871.7,419.6 c 0,10.5 -15,19 -33.5,19 -18.4,0 -33.4,-8.5 -33.4,-19 0,-10.4 15,-18.9 33.4,-18.9 18.5,0 33.5,8.5 33.5,18.9 z" class="s15" id="path73"/>
        <path d="m 792.2,312 12.6,100.6 h 0.2 c 1.3,9.8 15.7,17.5 33.2,17.5 18.5,0 33.5,-8.5 33.5,-19 L 884.3,312 Z" class="s16" id="path74"/>
        <path d="m 884.3,312 -12.6,99.1 c 0,7.7 -8.1,14.3 -19.6,17.3 1.8,-2.4 2.8,-4.9 2.8,-7.6 l 12.6,-99.1 h -74.1 l -1.2,-9.7 z" class="s17" id="path75"/>
        <g id="g78">
          <path d="m 884.3,312 c 0,14.4 -20.6,26.2 -46.1,26.2 -25.4,0 -46,-11.8 -46,-26.2 0,-14.4 20.6,-26.1 46,-26.1 25.5,0 46.1,11.7 46.1,26.1 z" class="s18" id="path76"/>
          <path d="m 838.2,332.2 c -23.6,0 -40.1,-10.7 -40.1,-20.2 0,-9.5 16.5,-20.2 40.1,-20.2 23.7,0 40.1,10.7 40.1,20.2 0,9.5 -16.4,20.2 -40.1,20.2 z" class="s19" id="path77"/>
          <path d="m 838.2,332.2 c -23.6,0 -40.1,-10.7 -40.1,-20.2 0,-9.5 16.5,-20.2 40.1,-20.2 23.7,0 40.1,10.7 40.1,20.2 0,9.5 -16.4,20.2 -40.1,20.2 z" class="s19" id="path78"/>
        </g>
      </g>
      <g clip-path="url(#cp1)" id="&lt;Clip Group&gt;">
        <g id="g83">
          <path d="m 855.3,302.9 -1,-0.2 c -0.5,-0.1 -0.9,-0.6 -0.8,-1.1 l 3,-15.4 c 0.1,-0.6 0.6,-0.9 1.2,-0.8 l 1,0.2 c 0.5,0.1 0.9,0.6 0.8,1.2 l -3,15.3 c -0.1,0.6 -0.6,0.9 -1.2,0.8 z" class="s20" id="path79"/>
          <g id="g82">
            <path d="m 851.1,378.5 c -0.2,1.4 -2.7,1.6 -5.4,0.5 -2.7,-1.2 -4.8,-3.2 -4.5,-4.6 0.3,-1.4 2.7,-1.6 5.4,-0.4 2.8,1.1 4.8,3.1 4.5,4.5 z" class="s21" id="path80"/>
            <path d="m 861.9,265.5 -20.7,108.9 9.9,4.1 20.7,-108.9 z" class="s8" id="path81"/>
            <path d="m 871.8,269.6 c -0.3,1.4 -2.7,1.6 -5.4,0.4 -2.8,-1.1 -4.8,-3.1 -4.5,-4.5 0.2,-1.4 2.7,-1.6 5.4,-0.5 2.8,1.1 4.8,3.2 4.5,4.6 z" class="s13" id="path82"/>
          </g>
        </g>
        <g id="g100">
          <path d="m 846.5,241.9 -0.1,3.4 v 1.5 l -0.1,4.7 v 1.4 l -0.2,4.8 v 1.4 l -0.1,4.7 v 1.4 l -0.2,4.7 v 1.4 l -0.1,4.8 v 1.3 l -0.2,4.8 v 1.4 l -0.1,4.7 v 1.4 l -0.2,4.7 v 1.4 l -0.1,4.8 -0.1,1.3 -0.1,4.8 v 1.5 l -0.1,4.7 -0.1,1.4 -0.1,4.8 v 1.4 l -0.1,4.8 -0.1,1.3 -0.1,4.8 v 1.4 l -0.1,4.7 v 1.4 l -0.5,19.5 c -0.1,4.5 -3.3,7.6 -6.5,6.3 l -10.3,-4.5 c -2.1,-0.9 -3.6,-3.6 -3.5,-6.7 L 827,239.1 c 0.1,-4 2.8,-7 5.7,-6.3 l 9.7,2.2 c 2.4,0.5 4.2,3.5 4.1,6.9 z" class="s13" id="path83"/>
          <g id="g84">
            <path d="m 846.4,245.3 v 1.5 q 0,0 -0.1,-0.1 l -4.4,-1.1 c -0.2,-0.1 -0.4,-0.5 -0.4,-0.8 0.1,-0.4 0.3,-0.7 0.6,-0.6 z" class="s1" id="path84"/>
          </g>
          <g id="g85">
            <path d="m 846.3,251.5 v 1.4 q -0.1,0 -0.1,0 l -4.4,-1.2 c -0.3,0 -0.5,-0.4 -0.4,-0.8 0,-0.3 0.3,-0.6 0.5,-0.5 z" class="s1" id="path85"/>
          </g>
          <g id="g86">
            <path d="m 846.1,257.7 v 1.4 c 0,0 -0.1,0 -0.1,0 l -4.4,-1.2 c -0.3,0 -0.5,-0.4 -0.4,-0.8 0.1,-0.4 0.3,-0.6 0.6,-0.5 z" class="s1" id="path86"/>
          </g>
          <g id="g87">
            <path d="m 846,263.8 v 1.4 q -0.1,0 -0.1,-0.1 l -4.4,-1.1 c -0.3,-0.1 -0.5,-0.4 -0.4,-0.8 0,-0.4 0.3,-0.7 0.6,-0.6 z" class="s1" id="path87"/>
          </g>
          <g id="g88">
            <path d="m 845.8,269.9 v 1.4 q 0,0 -0.1,0 l -4.4,-1.2 c -0.2,-0.1 -0.4,-0.4 -0.4,-0.8 0.1,-0.4 0.3,-0.7 0.6,-0.6 z" class="s1" id="path88"/>
          </g>
          <g id="g89">
            <path d="m 845.7,276.1 v 1.3 h -0.1 l -4.4,-1.1 c -0.3,-0.1 -0.5,-0.5 -0.5,-0.9 0.1,-0.3 0.4,-0.6 0.7,-0.5 z" class="s1" id="path89"/>
          </g>
          <g id="g90">
            <path d="m 845.5,282.2 v 1.4 q 0,0 -0.1,0 l -4.4,-1.2 c -0.2,0 -0.4,-0.4 -0.4,-0.8 0.1,-0.3 0.4,-0.6 0.6,-0.5 z" class="s1" id="path90"/>
          </g>
          <g id="g91">
            <path d="m 845.4,288.3 v 1.4 h -0.1 l -4.4,-1.2 c -0.3,0 -0.5,-0.4 -0.5,-0.8 0.1,-0.4 0.4,-0.6 0.6,-0.5 z" class="s1" id="path91"/>
          </g>
          <g id="g92">
            <path d="m 845.2,294.4 v 1.4 q 0,0 -0.1,0 l -4.4,-1.2 c -0.3,0 -0.4,-0.4 -0.4,-0.8 0.1,-0.3 0.3,-0.6 0.6,-0.5 z" class="s1" id="path92"/>
          </g>
          <g id="g93">
            <path d="m 845.1,300.6 -0.1,1.3 -4.4,-1.1 c -0.3,-0.1 -0.5,-0.5 -0.4,-0.8 0,-0.4 0.3,-0.7 0.5,-0.6 z" class="s1" id="path93"/>
          </g>
          <g id="g94">
            <path d="m 844.9,306.7 v 1.5 q 0,0 -0.1,-0.1 l -4.4,-1.1 c -0.3,-0.1 -0.4,-0.5 -0.4,-0.8 0.1,-0.4 0.3,-0.7 0.6,-0.6 z" class="s1" id="path94"/>
          </g>
          <g id="g95">
            <path d="m 844.8,312.9 -0.1,1.4 c 0,0 0,0 -0.1,0 l -4.4,-1.2 c -0.2,0 -0.4,-0.4 -0.4,-0.8 0.1,-0.4 0.3,-0.6 0.6,-0.5 z" class="s1" id="path95"/>
          </g>
          <g id="g96">
            <path d="m 844.6,319.1 v 1.4 q 0,0 0,0 -0.1,0 -0.1,-0.1 l -4.4,-1.1 c -0.3,-0.1 -0.5,-0.5 -0.4,-0.8 0,-0.4 0.3,-0.7 0.5,-0.6 z" class="s1" id="path96"/>
          </g>
          <g id="g97">
            <path d="m 844.5,325.3 -0.1,1.3 -4.4,-1.1 c -0.3,-0.1 -0.5,-0.5 -0.4,-0.8 0,-0.4 0.3,-0.7 0.6,-0.6 z" class="s1" id="path97"/>
          </g>
          <g id="g98">
            <path d="m 844.3,331.4 v 1.4 q 0,0 -0.1,-0.1 l -4.4,-1.1 c -0.2,-0.1 -0.4,-0.4 -0.4,-0.8 0.1,-0.4 0.3,-0.7 0.6,-0.6 z" class="s1" id="path98"/>
          </g>
          <g id="g99">
            <path d="m 844.2,337.5 v 1.4 h -0.1 l -4.4,-1.1 c -0.3,-0.1 -0.5,-0.5 -0.5,-0.8 0.1,-0.4 0.4,-0.7 0.6,-0.6 z" class="s1" id="path99"/>
          </g>
        </g>
      </g>
    </g>
    <g transform="matrix(0.85244825,0,0,0.81613968,9.06117,164.13792)" id="g110">
      <path style="fill:url(#g3)" d="m 653.8,509 32.2,18.5 76.9,-44.2 -32,-18.7 z" class="s22" id="path101"/>
      <path d="m 733.5,332.7 -71.8,41.4 24.3,14 51.5,-41.9 v -11.1 c 0,-2.1 -2.2,-3.4 -4,-2.4 z" class="s23" id="path102"/>
      <path d="m 661.7,377.9 71.4,-41.1 25.7,14.8 -71.4,41.2 z" class="s24" id="path103"/>
      <path d="m 760.7,347.2 c -0.9,-0.6 -2,-0.9 -3.1,-0.3 l -71.6,41.2 -24.3,-14 71.8,-41.4 c 0.7,-0.4 1.6,-0.4 2.3,-0.1 0,0 -2.5,-1.3 -3.5,-1.8 -0.9,-0.6 -2,-0.9 -3,-0.3 l -75.5,43.6 V 501 l 28.3,-16.3 v 32.6 l 77.2,-44.5 c 1.5,-0.8 2.3,-2.4 2.3,-4 l 2.5,-119.7 c 0,0 -2.3,-1.2 -3.4,-1.9 z" class="s25" id="path104"/>
      <path d="M 686,392.7 653.8,374.1 V 501 l 32.2,18.6 z" class="s26" id="path105"/>
      <path d="m 681.6,399.5 -24.8,-14.3 v 9.7 l 24.8,14.3 z" class="s27" id="path106"/>
      <path d="M 681.6,412.3 656.8,398 v 3.4 l 24.8,14.3 z" class="s27" id="path107"/>
      <path d="m 681.6,418.6 -24.8,-14.3 v 3.3 l 24.8,14.3 z" class="s27" id="path108"/>
      <path d="m 681.6,503.1 -24.8,-14.4 v 3.4 l 24.8,14.3 z" class="s27" id="path109"/>
      <path d="M 761.6,349.2 686,392.7 v 126.9 l 77.3,-44.5 c 1.4,-0.8 2.3,-2.4 2.3,-4.1 V 351.5 c 0,-2.1 -2.2,-3.4 -4,-2.3 z" class="s28" id="path110"/>
    </g>
    <g transform="matrix(0.85244825,0,0,0.81613968,9.06117,164.13792)" id="g120">
      <path style="fill:url(#g4)" d="m 711.5,519.3 32.3,18.6 76.9,-44.2 -32.1,-18.7 z" class="s29" id="path111"/>
      <path d="m 791.3,342.1 -71.8,41.3 24.3,14 51.5,-41.9 v -11.1 c 0,-2.1 -2.3,-3.4 -4,-2.3 z" class="s30" id="path112"/>
      <path d="m 719.4,387.3 71.4,-41.2 25.7,14.9 -71.3,41.1 z" class="s31" id="path113"/>
      <path d="m 818.5,356.5 c -0.9,-0.6 -2.1,-0.9 -3.1,-0.3 l -71.6,41.2 -24.3,-14 71.8,-41.3 c 0.7,-0.5 1.6,-0.5 2.3,-0.2 0,0 -2.5,-1.2 -3.5,-1.8 -0.9,-0.5 -2,-0.8 -3,-0.2 l -75.6,43.5 V 510.3 L 739.8,494 v 32.6 l 77.3,-44.5 c 1.4,-0.8 2.3,-2.3 2.3,-4 l 2.4,-119.7 c 0,0 -2.2,-1.2 -3.3,-1.9 z" class="s32" id="path114"/>
      <path d="m 743.8,402 -32.3,-18.6 v 126.9 l 32.3,18.6 z" class="s33" id="path115"/>
      <path d="m 739.4,408.8 -24.9,-14.3 v 9.7 l 24.9,14.4 z" class="s1" id="path116"/>
      <path d="m 739.4,421.7 -24.9,-14.4 v 3.4 l 24.9,14.3 z" class="s1" id="path117"/>
      <path d="m 739.4,427.9 -24.9,-14.3 v 3.3 l 24.9,14.4 z" class="s1" id="path118"/>
      <path d="m 739.4,512.4 -24.9,-14.3 v 3.3 l 24.9,14.4 z" class="s1" id="path119"/>
      <path d="M 819.3,382.5 743.8,426 v 126.9 l 77.3,-44.5 c 1.4,-0.8 2.3,-2.4 2.3,-4 V 384.8 c 0,-2.1 -2.3,-3.4 -4.1,-2.3 z" class="s30" id="path120"/>
    </g>
    <g transform="matrix(0.85244825,0,0,0.81613968,9.06117,164.13792)" id="g126">
      <path d="m 1206.5,355.5 v 57 l -3.8,2.1 -53.1,-39.9 -8.3,-52.5 3.9,-2.1 z" class="s34" id="path121"/>
      <path d="m 1206.5,355.5 v 57 l -3.8,2.1 -53.1,-39.9 53.1,-17.1 z" class="s35" id="path122"/>
      <path d="m 1202.7,357.6 v 57 l -61.4,-35.4 v -57 z" class="s27" id="path123"/>
      <g id="g125">
        <path d="m 1148.9,341 v 4.8 l 22.2,24.8 22.2,0.6 v -4.8 z" class="s1" id="path124"/>
        <path d="m 1171.1,373.4 -22.2,-24.9 v 24.3 l 44.4,25.4 v -24.3 z" class="s1" id="path125"/>
      </g>
    </g>
    <g transform="matrix(0.85244825,0,0,0.81613968,9.06117,164.13792)" id="g129">
      <path d="m 960.9,400.4 v 40.1 l -4.3,2.4 -37.4,-28.1 -5.8,-37 4.2,-2.3 z" class="s34" id="path126"/>
      <path d="m 960.9,400.4 v 40.1 l -4.3,2.4 -37.4,-28.1 37.4,-12.1 z" class="s35" id="path127"/>
      <path d="m 956.6,402.7 v 40.2 L 913.4,418 v -40.2 z" class="s27" id="path128"/>
      <path d="m 924.2,406.1 5.9,11.5 16.8,-12.3" class="s36" id="path129"/>
    </g>
    <g transform="matrix(0.85244825,0,0,0.81613968,9.06117,164.13792)" id="g133">
      <g id="g132">
        <path d="m 1230.3,496.6 v 40.1 l -4.3,2.4 -37.4,-28.1 -5.8,-36.9 4.3,-2.4 z" class="s26" id="path130"/>
        <path d="m 1230.3,496.6 v 40.1 l -4.3,2.4 -37.4,-28.1 37.4,-12 z" class="s37" id="path131"/>
        <path d="m 1226,499 v 40.1 l -43.2,-24.9 v -40.1 z" class="s38" id="path132"/>
      </g>
      <path d="m 1203.4,494.5 -3.2,4.7 c -0.2,0.3 -0.6,0.4 -0.9,0.2 l -7.1,-3.1 c -0.7,-0.3 -1.3,0.4 -0.9,1 l 5.7,8.8 q 0.1,0.3 0.1,0.6 l -1.5,7.6 c -0.1,0.4 0.3,0.9 0.7,0.9 l 7.6,0.5 q 0.3,0 0.5,0.3 l 6.9,7.6 c 0.5,0.6 1.4,0.2 1.3,-0.5 l -1.2,-7.8 c -0.1,-0.3 0.1,-0.7 0.4,-0.8 l 5.4,-2 c 0.5,-0.2 0.6,-1 0.1,-1.3 l -8.5,-6.3 q -0.2,-0.1 -0.3,-0.3 l -3.8,-9.9 c -0.2,-0.6 -0.9,-0.7 -1.3,-0.2 z" class="s1" id="path133"/>
    </g>
    <g transform="matrix(0.85244825,0,0,0.81613968,9.06117,164.13792)" id="g157">
      <g id="g139">
        <path style="fill:url(#g5)" d="m 725.7,564.2 271.7,155.9 167.9,-97 -271.7,-155.9 z" class="s39" id="path134"/>
        <path d="m 893.6,452.3 271.7,155.9 v 6 l -167.9,97.1 -271.7,-156 v -6 z" class="s40" id="path135"/>
        <path d="m 725.7,549.3 271.7,155.9 167.9,-97 -271.7,-155.9 z" class="s41" id="path136"/>
        <g id="g137">
          <path d="m 895.7,435 c 0,0 49.5,5.8 132.4,79 0,0 71.7,13.7 127.5,70.2 v 20.7 l -158.4,91 -259.9,-149.2 v -20.8 z" class="s1" id="path137"/>
        </g>
        <g id="g138">
          <path d="m 737.3,525.9 c 0,0 49.5,5.9 132.4,79.1 0,0 71.7,13.7 127.5,70.2 v 20.7 L 737.3,546.7 Z" class="s42" id="path138"/>
        </g>
        <path d="m 1155.6,584.2 -158.4,91 v 20.7 l 158.4,-91 z" class="s43" id="path139"/>
      </g>
      <g id="g140">
        <path d="m 1144.6,544.7 -158.4,90.9 c -8.1,-5.2 -16.3,-9.6 -24.4,-13.2 -6.3,-2.9 -12.7,-5.3 -18.8,-7.4 -40.4,-13.4 -73.3,-10 -73.3,-10 l 158.4,-91 c 0,0 59.4,-6.1 116.5,30.7 z" class="s42" id="path140"/>
      </g>
      <g id="g156">
        <path style="fill:url(#g6)" d="m 1125.9,548.6 -3.8,2.2 c -42,-24.6 -84.3,-26.9 -101.1,-26.6 l 6.4,-3.7 c 20.5,0.5 59.8,4.9 98.5,28.1 z" class="s44" id="path141"/>
        <path style="fill:url(#g7)" d="m 1108.8,558.4 -3.7,2.2 C 1063,536 1020.7,533.7 1003.9,533.9 l 6.5,-3.7 c 20.4,0.6 59.7,5 98.4,28.2 z" class="s45" id="path142"/>
        <path style="fill:url(#g8)" d="m 1091.7,568.2 -3.7,2.2 c -42,-24.6 -84.3,-26.9 -101.1,-26.7 l 6.5,-3.7 c 20.4,0.6 59.7,5 98.3,28.2 z" class="s46" id="path143"/>
        <path style="fill:url(#g9)" d="m 1074.9,577.9 -3.8,2.2 c -42,-24.6 -84.2,-26.9 -101.1,-26.7 l 6.5,-3.7 c 20.4,0.6 59.7,5 98.4,28.2 z" class="s47" id="path144"/>
        <path style="fill:url(#g10)" d="m 1057.8,587.7 -3.8,2.2 C 1012,565.3 969.8,563 953,563.2 l 6.4,-3.7 c 20.4,0.6 59.7,5 98.4,28.2 z" class="s48" id="path145"/>
        <path style="fill:url(#g11)" d="m 1039.7,598.1 -3.7,2.1 C 994,575.7 951.7,573.4 934.9,573.6 l 6.5,-3.7 c 20.4,0.5 59.7,5 98.3,28.2 z" class="s49" id="path146"/>
        <path style="fill:url(#g12)" d="m 1022.5,608 -3.8,2.1 c -41.9,-24.5 -84.1,-26.8 -101,-26.6 l 6.4,-3.7 c 20.5,0.5 59.7,5 98.4,28.2 z" class="s50" id="path147"/>
        <path style="fill:url(#g13)" d="m 1005.3,617.9 -3.8,2.1 c -41.9,-24.5 -84.2,-26.8 -101,-26.6 l 6.4,-3.8 c 20.5,0.6 59.7,5.1 98.4,28.3 z" class="s51" id="path148"/>
        <path style="fill:url(#g14)" d="m 889.3,447.7 c 17.1,4.9 57.8,20.9 115.6,70.5 l 3.5,-2.1 C 952.8,468.3 913.2,451.1 894,445 Z" class="s52" id="path149"/>
        <path style="fill:url(#g15)" d="m 872.4,457.4 c 17.2,5 57.9,21.1 115.5,70.5 l 3.5,-2 C 936,478.1 896.4,460.8 877.1,454.7 Z" class="s53" id="path150"/>
        <path style="fill:url(#g16)" d="m 855.2,467.3 c 17,4.9 57.8,20.9 115.6,70.4 l 3.5,-2 c -55.6,-47.8 -95.2,-65 -114.4,-71.1 z" class="s54" id="path151"/>
        <path style="fill:url(#g17)" d="m 838.2,477 c 17.1,5 57.8,21.1 115.5,70.5 l 3.5,-2 c -55.5,-47.8 -95,-65 -114.3,-71.1 z" class="s55" id="path152"/>
        <path style="fill:url(#g18)" d="m 821.1,486.9 c 17.1,5 57.8,21 115.5,70.5 l 3.5,-2.1 C 884.6,507.5 845,490.3 825.7,484.2 Z" class="s56" id="path153"/>
        <path style="fill:url(#g19)" d="m 804.1,496.6 c 17.1,5 57.8,21.1 115.5,70.5 l 3.5,-2 C 867.6,517.3 828,500.1 808.7,494 Z" class="s57" id="path154"/>
        <path style="fill:url(#g20)" d="m 787,506.5 c 17.1,4.9 57.8,21 115.5,70.4 l 3.5,-2 c -55.5,-47.8 -95.1,-65 -114.3,-71.1 z" class="s58" id="path155"/>
        <path style="fill:url(#g21)" d="m 769.8,516.3 c 17.2,5 57.8,21 115.6,70.5 l 3.5,-2 C 833.4,537 793.8,519.7 774.5,513.6 Z" class="s59" id="path156"/>
      </g>
      <path d="m 885.7,541.9 6.4,0.7 0.7,5.4 96.4,-55.4 -7.7,-5.6 z" class="s60" id="path157"/>
    </g>
    <g transform="matrix(0.85244825,0,0,0.81613968,9.06117,164.13792)" id="g202">
      <g id="g201">
        <path d="m 835.8,542.8 c -2.4,2.6 -19.8,11 -29.5,14 q -1.7,-1 -3.4,-2 l 31.2,-16.6 c 0,0 4.2,1.9 1.7,4.6 z" class="s61" id="path158"/>
        <path d="m 803.8,426.1 c 0,0 -3.6,4.3 -1.3,11.5 1.4,4.4 2.6,4.8 3,7.1 0.3,2.4 -3,6.7 -0.2,13.4 1.5,3.4 10.5,-0.6 10.5,-0.6 l 4.6,-6.1 -4.6,-12.5 z" class="s62" id="path159"/>
        <path d="m 815.6,448.1 0.5,6.2 c 0,0 -11.1,4.3 -11.3,2.3 -0.3,-2.1 2.3,-3.2 2.8,-4.6 0.4,-1.4 0,-2.6 0,-2.6 0,0 -1.5,-2.7 -1.2,-6" class="s63" id="path160"/>
        <path d="m 758.2,609.5 c 0,0 0.3,0.4 0.3,0.8 -0.1,0.4 -0.7,1.1 -1.9,1.8 -1.3,0.6 -2.2,0.9 -3.5,2 -1.3,1.1 -3.7,3.3 -5.1,4.4 -1.3,1.2 -3.2,1.7 -4.3,1.9 -1.1,0.2 -3.8,0.6 -5.9,0.5 -1.8,-0.1 -3.1,-1.1 -3.3,-1.9 -0.2,-0.8 -0.1,-2.1 -0.1,-2.1" class="s64" id="path161"/>
        <path d="m 749.2,596.5 v 7.5 3.3 h 6.3 l 2.1,-10.8 z" class="s65" id="path162"/>
        <path d="m 808.8,526.1 c 0,0 -6.7,18.4 -20.2,23.1 q -3.3,1.2 -6.4,1.9 c -10.4,2.5 -18.2,1.8 -18.2,1.8 1.2,13.6 -4.9,39 -6.4,45 -0.2,0.9 -0.9,1.6 -1.8,1.8 q -0.3,0 -0.5,0.1 c -1.7,0.2 -3.3,0 -4.4,-0.3 -1.2,-0.3 -2,-1.3 -2,-2.4 -0.4,-9.3 -2,-53 2.9,-56.4 12.4,-8.6 42.6,-18.8 48.8,-21.1 0.7,-0.3 1.3,-0.8 1.6,-1.5 l 2,-5 z" class="s64" id="path163"/>
        <path d="m 785.8,540.7 -3.6,10.4 c -10.4,2.5 -18.2,1.8 -18.2,1.8 1.2,13.6 -4.9,39 -6.4,45 -0.2,0.9 -0.9,1.6 -1.8,1.8 q -0.3,0 -0.5,0.1 c 5.8,-20.3 4.8,-51.9 4.8,-51.9 12.4,0.8 25.3,-7 25.7,-7.2 z" class="s66" id="path164"/>
        <path d="m 792.2,601.9 2.9,6.1 c 0,0 8.6,7.9 6.7,-1.8 L 798.3,595" class="s65" id="path165"/>
        <path d="m 838.2,528.9 c -0.6,5.7 -2.3,12 -10,16.4 -6.7,3.8 -21,10.7 -38.2,15.1 q 0.9,2.2 2.1,5.1 c 3,7.6 6.6,26.9 7.8,33.3 0.2,1 0,2 -0.7,2.8 q -0.2,0.2 -0.4,0.4 c -1.1,1 -2.6,2 -4.3,2 -1.2,0 -2.2,-0.7 -2.7,-1.8 -3.5,-6.9 -20.4,-39.9 -21.8,-46.9 -0.2,-0.8 -0.4,-2.2 -0.1,-3.1 q 0.2,-0.6 0.4,-0.9 c 7.6,-8 33.5,-19.7 33.5,-19.7 l 0.4,-18.5 28.4,3.2 4.4,0.5 c 0,0 1.6,7.4 1.2,12.1 z" class="s64" id="path166"/>
        <path d="m 838.2,528.9 c -0.6,5.7 -2.3,12 -10,16.4 -6.7,3.8 -21,10.7 -38.2,15.1 q 0.9,2.2 2.1,5.1 c 3,7.6 6.6,26.9 7.8,33.3 0.2,1 0,2 -0.7,2.8 -1.7,-6.3 -5.7,-19.2 -7,-26.4 -1.6,-8.2 -8.4,-18.1 -8.4,-18.1 0,0 8.3,-2.2 20.2,-6.1 11.9,-4 24.7,-9.9 28.5,-17 3.7,-7.1 0,-17.5 0,-17.5 q 0,0 0.1,-0.2 l 4.4,0.5 c 0,0 1.6,7.4 1.2,12.1 z" class="s66" id="path167"/>
        <path d="m 758,610.3 c -1.1,1 -1.8,1.1 -4.7,2.8 -2.8,1.6 -5.7,5.5 -8.1,6.2 -2.3,0.7 -7,1.6 -9.2,0.5 -1.2,-0.6 -1.7,-1.5 -1.7,-2.5 -0.1,-0.8 0.1,-1.5 0.4,-2.1 0.7,-1.3 2.6,-2.2 4.9,-3.3 2.4,-1.1 4.9,-3.9 6.5,-5.5 1.6,-1.5 2.1,-3.2 2.7,-4 0.2,-0.4 2.6,0.1 3.4,1.3 0.4,0.7 0.3,0.9 0.1,1.2 -0.1,0.2 -0.1,0.5 0.1,0.7 0.1,0.2 0.3,0.3 0.5,0.3 3.1,0.1 3.5,-3.1 3.5,-3.1 2.2,0.9 2.7,6.5 1.6,7.5 z" class="s8" id="path168"/>
        <path d="m 805.4,610.7 c 0,0 0.8,0.8 0.8,1.5 0,0.6 -1.3,3.2 -2.2,4 0,0 -0.3,0.4 -0.6,1 -0.3,0.6 -1.9,4 -3.3,5.8 -1.4,1.8 -4.6,2.8 -6.1,3.2 -1.4,0.4 -3,0.7 -5.4,-0.1 -2.4,-0.9 -2.6,-2.7 -2.6,-2.7 l 6.5,-3.6" class="s64" id="path169"/>
        <path d="m 805.8,611.6 c 0.1,0.6 -0.8,2.6 -2.4,4.3 -1.8,3.7 -3.6,6.7 -4.6,7.5 -1.2,0.8 -3.5,1.7 -5.9,2.4 -2.9,0.9 -6.9,-0.7 -7.1,-3.2 q 0,-0.1 0,-0.3 c 0.2,-2.6 3.9,-4.6 5.4,-5.4 1.7,-0.8 2.4,-6 2.7,-8.2 0.1,-0.5 0.5,-1.3 1.4,-1.3 0.9,0.1 1.9,0.4 2.5,0.9 0.6,0.5 0.4,0.7 0.4,1.2 0,0.4 0.3,0.6 0.6,0.6 q 0.2,0 0.4,-0.1 c 0.6,-0.2 2.9,-2.3 2.6,-3.8 0,0 0.6,-0.3 1.1,0.4 0.5,0.6 2.8,3.3 2.9,5 z" class="s8" id="path170"/>
        <path d="" class="s67" id="path171"/>
        <path d="m 812.8,470.6 c 0,0 -3.5,10.7 -6.5,17.9 -0.8,2 -1.5,3.8 -2.2,4.9 q -0.3,0.6 -0.6,1.2 c -4.9,8 -17.6,19.6 -22.5,24.3 q 0,0 0,0 c -0.5,0.4 -1.1,0.6 -1.6,0.7 -1.1,0.1 -2.2,-0.4 -2.8,-1.3 q -0.3,-0.5 -0.3,-0.9 c -0.1,-0.5 0.1,-0.9 0.2,-1.1 q 0,0 0,0 0.1,-0.1 0.1,-0.1 c 1.7,-2.6 11.3,-17.1 15.1,-22.8 1.8,-2.6 3.2,-4.4 4.1,-5.5 0.4,-4.1 1.7,-16.8 3.6,-24.2 q 0,-0.1 0,-0.3 c 0.8,-2.9 2.1,-5 3.4,-6.6 q 0.9,-1 1.8,-1.7 0.2,-0.1 0.4,-0.2 c 1.2,-0.7 2.7,-1.2 4.5,-1.6 1,0.1 2,0.4 2.9,1 1.5,1 2.6,2.6 2.9,5.1 0.3,2.3 -1.1,6.7 -2.5,11.2 z" class="s68" id="path172"/>
        <path d="m 799.4,463.4 c -0.1,1.1 -2.2,17 -2.3,24.9 0,0 -19,26 -20.8,29.1 -0.1,-0.5 0.1,-0.9 0.2,-1.1 q 0,0 0,0 0.1,-0.1 0.1,-0.1 c 1.7,-2.6 11.3,-17.1 15.1,-22.8 1.8,-2.6 3.2,-4.4 4.1,-5.5 0.4,-4.1 1.7,-16.8 3.6,-24.2 q 0,-0.1 0,-0.3 z" class="s69" id="path173"/>
        <path d="m 806.3,488.5 c -0.8,2 -1.5,3.8 -2.2,4.9 -4.2,7.9 -17.9,20.5 -23.1,25.5 q 0,0 0,0 c -0.5,0.4 -1.1,0.6 -1.6,0.7 2.5,-2.7 17.3,-18.2 19.1,-20.7 2.1,-2.7 3.2,-4.8 2.9,-6.5 -0.3,-1.8 -0.7,-2.4 -2.2,-5.4 -2.1,-4.6 -1.9,-6.5 -1.9,-6.5 0,0 5.5,1.7 6,1.8 0.3,0 1.7,3.2 3,6.2 z" class="s70" id="path174"/>
        <path d="m 802.1,461.3 c 0,0 0.4,4.7 -1.2,7.8 -1.6,3.2 -3.1,6.2 -3.6,10.8 l 6.5,-7.7 z" class="s70" id="path175"/>
        <path d="m 812.8,470.6 c 0,0 -3.5,10.7 -6.5,17.9 -0.8,2 -1.5,3.8 -2.2,4.9 q -0.3,0.6 -0.6,1.2 c -4.9,8 -17.6,19.6 -22.5,24.3 q 0,0 0,0 c -0.5,0.4 -1.1,0.6 -1.6,0.7 -1.1,0.1 -2.2,-0.4 -2.8,-1.3 q -0.3,-0.5 -0.3,-0.9 c -0.1,-0.5 0.1,-0.9 0.2,-1.1 q 0,0 0,0 0.1,-0.1 0.1,-0.1 c 1.7,-2.6 11.3,-17.1 15.1,-22.8 1.8,-2.6 3.2,-4.4 4.1,-5.5 0.4,-4.1 1.7,-16.8 3.6,-24.2 q 0,-0.1 0,-0.3 c 0.8,-2.9 2.1,-5 3.4,-6.6 q 0.9,-1 1.8,-1.7 0.2,-0.1 0.4,-0.2 c 1.2,-0.7 2.7,-1.2 4.5,-1.6 1,0.1 2,0.4 2.9,1 1.5,1 2.6,2.6 2.9,5.1 0.3,2.3 -1.1,6.7 -2.5,11.2 z" class="s8" id="path176"/>
        <path d="m 837.2,514.7 c 0.3,0.8 0.6,1.4 -0.2,2.1 0,0 -2.5,3.2 -10.5,3.4 q -0.1,0 -0.3,0.1 -0.9,0 -2.1,-0.2 c -5.8,-0.8 -15.5,-4.2 -18.9,-6.2 q 0,0 -0.1,-0.1 0,0 0,0 c -0.4,-0.3 -1.7,-1.1 -1.5,-1.6 0.5,-2 0.6,-4.6 0.7,-4.6 -0.1,-4.3 -0.2,-10 -0.8,-13 q -0.1,-0.3 -0.2,-0.5 -0.1,-0.4 -0.2,-0.8 c -0.8,-2.7 -2.7,-5.6 -4.1,-8 v -0.1 c -0.9,-1.5 -1.6,-2.9 -1.7,-4 -0.6,-5.5 4.9,-9.3 4.6,-14.1 -0.2,-3.8 -0.8,-7.6 0.9,-10.3 q 0.6,-1 1.8,-1.7 0.2,-0.1 0.4,-0.2 c 1.2,-0.7 2.7,-1.2 4.5,-1.6 4.7,-0.9 10.9,-0.6 15.9,0.8 0,0 16.1,6.6 17.7,12.6 1.7,6 -3.5,17.1 -5.6,22.7 q -0.4,1 -0.7,2.1 c -1.7,5.9 -2.6,14.7 -1.6,18.4 0,0 1.4,3.5 2,4.8 z" class="s8" id="path177"/>
        <path d="m 837,516.8 c 0,0 -2.5,3.2 -10.5,3.4 q -0.1,0 -0.3,0.1 -0.9,0 -2.1,-0.2 c 1.4,-0.2 2.8,-0.6 3.7,-1.4 1.8,-1.9 0.2,-11.1 -0.3,-13.8 -0.4,-2.5 0.4,-7.8 -1.4,-8.4 l -0.4,-2.8 c 0,0 -1.4,1.8 -4.8,1.1 -4,-0.8 -5.7,-1.5 -7.1,-1.9 -1.9,-0.6 -4.1,-0.8 -7.9,-1.8 -4.1,-1 -4.6,-1.9 -4.6,-1.9 -0.8,-1.4 -1.6,-2.7 -2.3,-3.9 v -0.1 c 0,0 2,2.5 4.8,3.1 2.8,0.6 15,3.7 17.6,3.3 2.6,-0.4 5.5,-4.1 5.5,-4.1 l 9.9,4 c -1.7,5.9 -2.6,14.7 -1.6,18.4 0,0 1.4,3.5 2,4.8 0.3,0.8 0.6,1.4 -0.2,2.1 z" class="s71" id="path178"/>
        <path d="m 829.9,460 c -0.3,2.4 -9.2,8 -16.2,10.4 0,0 -2.9,-7.9 -2.2,-12.5 0.1,-0.9 0.6,-1.6 1.4,-2 q 0.5,-0.3 1,-0.7 c 0.7,-0.8 1.2,-1.9 1.2,-3 q 0,-0.9 -0.1,-1.6 c -0.1,-1.5 -0.3,-2.6 -0.3,-2.6 l 13,-7.1 c 0,0 -1.8,12.1 -0.3,13.9 0,0 2.7,3 2.5,5.2 z" class="s65" id="path179"/>
        <path d="m 826.6,453.2 -2.9,-3.3 -1,-0.6 c 1.1,-0.9 2.1,-2 2.7,-3.4 l -10.4,4.7 q 0.1,0.7 0.1,1.6 c 0,1.1 -0.5,2.2 -1.2,3 0,0 1.2,-0.2 2,-1.5 0.5,-0.8 3.4,-2.4 5.8,-3.6 0,1.3 0.6,4 2.6,5.3 3.1,2 6.7,1.6 6.7,1.6 z" class="s72" id="path180"/>
        <path d="m 804.6,427 c 0,0 -1.3,8.2 0.9,15.5 2.1,7.3 5.1,9.4 6.8,9.5 1.6,0.1 11.6,-1.4 14.4,-8.4 2.9,-7 2.3,-15 1,-19.1 -1.3,-4.1 -8.5,-7.7 -13.5,-6.8 -5,0.9 -9.1,4.4 -9.6,9.3 z" class="s65" id="path181"/>
        <g id="g191">
          <path d="m 822.3,534.8 v 1.8 l -38.8,-15.4 -24.2,10 0.3,-0.5 h -3.3 v 1.5 c 0,0.2 0.1,0.4 0.3,0.4 l 40.8,16.3 c 0.3,0.1 0.6,0.1 0.9,0 l 25.6,-10.7 c 0.2,-0.1 0.4,-0.3 0.4,-0.5 v -1.8 z" class="s73" id="path182"/>
          <g id="g185">
            <path d="m 823.2,537.7 c 0,0.3 -0.1,0.5 -0.3,0.5 -0.1,0 -0.3,-0.2 -0.3,-0.5 0,-0.2 0.2,-0.4 0.3,-0.4 0.2,0 0.3,0.2 0.3,0.4 z" class="s74" id="path183"/>
            <path d="m 822,538.2 c 0,0.3 -0.1,0.5 -0.3,0.5 -0.1,0 -0.3,-0.2 -0.3,-0.5 0,-0.2 0.2,-0.4 0.3,-0.4 0.2,0 0.3,0.2 0.3,0.4 z" class="s74" id="path184"/>
            <path d="m 820.7,538.7 c 0,0.2 -0.1,0.4 -0.3,0.4 -0.1,0 -0.3,-0.2 -0.3,-0.4 0,-0.3 0.2,-0.5 0.3,-0.5 0.2,0 0.3,0.2 0.3,0.5 z" class="s74" id="path185"/>
          </g>
          <path d="m 783.5,519.4 -27.2,11.3 41.5,16.6 26.2,-10.9 c 0.4,-0.2 0.4,-0.7 0,-0.9 z" class="s74" id="path186"/>
          <path d="m 783.3,521.4 -23.5,9.8 c -0.2,0.1 -0.2,0.4 0,0.4 L 796,546 q 0.1,0.1 0.2,0 l 23.5,-9.8 c 0.1,0 0.1,-0.3 -0.1,-0.4 l -36.1,-14.4 q -0.1,0 -0.2,0 z" class="s60" id="path187"/>
          <path d="m 793.3,524.6 -7,2.9 c -0.1,0.1 -0.1,0.2 0,0.3 l 11.1,4.4 c 0.3,0.1 0.6,0.1 0.9,0 l 7,-2.9 c 0.1,-0.1 0.1,-0.2 0,-0.3 l -11.1,-4.4 c -0.3,-0.1 -0.6,-0.1 -0.9,0 z" class="s75" id="path188"/>
          <path d="m 797,548 q 0.2,-0.1 0.4,-0.3 0,0 0,0 l 0.4,-0.4 -11.2,-28.2 c -0.2,-0.4 -0.5,-0.6 -0.8,-0.8 l -40.6,-16.1 c -0.1,0 -0.2,0 -0.3,0.1 l -0.7,0.7 q 0,0 0,0 l 1.4,1.1 10.7,26.7 39.9,15.8 -0.1,0.2 z" class="s76" id="path189"/>
          <path d="m 797,548 -11.1,-27.8 c -0.2,-0.6 -0.6,-1 -1.2,-1.2 l -40.3,-16 q -0.1,-0.1 -0.2,0 0,0 0,0 0,0.1 0,0.2 l 11.2,28.1 q 0.1,0.2 0.4,0.3 l 40.8,16.3 h 0.1 q 0,0 0.1,0 0,0.1 0.2,0.1 z" class="s77" id="path190"/>
          <path d="m 771.2,526.6 c -0.4,1.2 -2.2,1.7 -4,1.1 -1.8,-0.6 -3,-2.1 -2.6,-3.3 0.4,-1.2 2.2,-1.7 4.1,-1.1 1.8,0.6 2.9,2 2.5,3.3 z" class="s78" id="path191"/>
        </g>
        <path d="m 805.9,525 -1.6,2 c -0.7,0.9 -2,1.2 -3.3,1.4 l -2.2,0.6 q -0.1,0 -0.2,0 -0.1,0.1 -0.2,0.2 l -2.6,2.1 q 0,0 0,0.1 -0.1,0.1 -0.2,0.3 c 0,0 -1.4,2.2 -1.7,3 0,0.2 0.5,0.4 0.8,0.1 0.4,-0.3 2,-2.4 2,-2.4 0,0 -1.3,2.7 -1.6,3.6 -0.1,0.2 0.4,0.3 0.9,-0.1 0.6,-0.3 1.9,-3.1 1.9,-3.1 0,0 -0.7,2.1 -0.9,2.8 0,0.2 0.2,0.4 0.8,0.1 0.6,-0.2 1.6,-2.5 1.6,-2.5 l 0.7,-0.7 -0.6,0.9 c 0,0 -0.7,1.5 -0.9,1.9 -0.1,0.3 0.5,0.3 1.1,-0.3 0.5,-0.5 1.4,-1.8 1.9,-1.9 0.4,-0.1 0.7,0.4 2.5,0.3 1.5,-0.2 2.7,-2.9 2.7,-2.9 l 3.8,-3.9 z" class="s65" id="path192"/>
        <path d="m 841.3,479.9 c 0,0.1 -5.8,17.5 -8.7,22.9 -4.2,7.9 -18,20.5 -23.1,25.4 q -0.1,0 -0.1,0 c -0.5,0.5 -1.2,0.8 -1.8,0.8 -1,0 -1.9,-0.5 -2.5,-1.3 q -0.3,-0.5 -0.3,-0.8 c -0.1,-0.6 0.1,-1 0.2,-1.2 q 0,0 0,0 0.1,-0.1 0.1,-0.1 c 1.7,-2.6 11.3,-17.2 15.1,-22.8 1.8,-2.7 3.2,-4.4 4.1,-5.5 0.4,-3.9 1.5,-15 3.1,-22.5 q 0,-0.1 0,-0.1 0.2,-0.8 0.4,-1.6 c 1.3,-4.8 3.8,-7.5 5.8,-9 2.1,-1.6 5.1,-1.9 7.3,-0.4 q 0.6,0.4 1.2,1 0,0 0,0 c 0.8,0.9 1.4,2.3 1.7,4.1 0.3,2.3 -1.1,6.7 -2.5,11.1 z" class="s68" id="path193"/>
        <path d="m 841.3,479.9 c 0,0.1 -5.8,17.5 -8.7,22.9 -4.2,7.9 -18,20.5 -23.1,25.4 q -0.1,0 -0.1,0 c -0.5,0.5 -1.2,0.8 -1.8,0.8 2.6,-2.6 12.3,-12.4 14.6,-14.7 2.6,-2.8 8.1,-9.5 10.1,-14 2,-4.5 7,-20 8.9,-26.2 1.9,-6 0.9,-9.2 0.9,-9.4 0.8,0.9 1.4,2.3 1.7,4.1 0.3,2.3 -1.1,6.7 -2.5,11.1 z" class="s70" id="path194"/>
        <path d="m 827.4,474.8 c -0.1,1.1 -1.8,18.7 -1.7,22.7 0,0 -19.1,26.3 -20.9,29.4 -0.1,-0.6 0.1,-1 0.2,-1.2 q 0,0 0,0 0.1,-0.1 0.1,-0.1 c 1.7,-2.6 11.3,-17.2 15.1,-22.8 1.8,-2.7 3.2,-4.4 4.1,-5.5 0.4,-3.9 1.5,-15 3.1,-22.5 z" class="s69" id="path195"/>
        <path d="m 841.3,479.9 c 0,0.1 -5.8,17.5 -8.7,22.9 -4.2,7.9 -18,20.5 -23.1,25.4 q -0.1,0 -0.1,0 c -0.5,0.5 -1.2,0.8 -1.8,0.8 -1,0 -1.9,-0.5 -2.5,-1.3 q -0.3,-0.5 -0.3,-0.8 c -0.1,-0.6 0.1,-1 0.2,-1.2 q 0,0 0,0 0.1,-0.1 0.1,-0.1 c 1.7,-2.6 11.3,-17.2 15.1,-22.8 1.8,-2.7 3.2,-4.4 4.1,-5.5 0.4,-3.9 1.5,-15 3.1,-22.5 q 0,-0.1 0,-0.1 0.2,-0.8 0.4,-1.6 c 1.3,-4.8 3.8,-7.5 5.8,-9 2.1,-1.6 5.1,-1.9 7.3,-0.4 q 0.6,0.4 1.2,1 0,0 0,0 c 0.8,0.9 1.4,2.3 1.7,4.1 0.3,2.3 -1.1,6.7 -2.5,11.1 z" class="s8" id="path196"/>
        <path d="m 833.8,458.3 c -2.6,-1.4 -5.5,-1.2 -8.2,-3 q 0,0 0,0 -0.3,-0.2 -0.6,-0.4 -0.2,-0.2 -0.5,-0.5 c -3.4,-3.1 -1.7,-10.2 -1.7,-13.9 v -0.2 c -0.1,-5.1 0.1,-9 -6.3,-7.6 -2.8,0.6 -5.4,0.4 -7.4,0 -4.1,-0.9 -6.6,-5.5 -4.6,-9.2 q 0.1,-0.3 0.3,-0.6 c 4.4,-7 14.4,-6.2 19.7,-3 4.5,2.7 6.2,6.5 6.1,13.3 -0.1,5.8 2.2,5.5 3.2,10.8 q 0.1,0.5 0.2,1.2 0.1,0.7 0.2,1.5 c 0.5,6.2 -0.4,11.6 -0.4,11.6 z" class="s62" id="path197"/>
        <path d="m 833.8,458.3 c -2.6,-1.4 -5.5,-1.2 -8.2,-3 q 0,0 0,0 -0.3,-0.2 -0.6,-0.4 -0.2,-0.2 -0.5,-0.5 c -3.4,-3.1 -1.7,-10.2 -1.7,-13.9 l 2.9,-1.9 c 0,0 0.3,2 0,3.7 -0.3,1.8 -0.9,1.8 -1.5,3.8 -0.5,2 -0.4,5.8 1.6,7.3 2,1.4 5.2,1.1 6.1,1.6 0,0 2.1,-4 1.9,-11 q 0.1,0.5 0.2,1.2 0.1,0.7 0.2,1.5 c 0.5,6.2 -0.4,11.6 -0.4,11.6 z" class="s63" id="path198"/>
        <path d="m 822,437.8 c 0,0 1,-1.7 2.6,-1.5 1.6,0.3 1.4,2.7 0.9,4.6 -0.5,2.6 -3.2,2.3 -3.2,2.3" class="s65" id="path199"/>
        <path d="m 758,610.3 c -1.1,1 -1.8,1.1 -4.7,2.8 -2.8,1.6 -5.7,5.5 -8.1,6.2 -2.3,0.7 -7,1.6 -9.2,0.5 -1.2,-0.6 -1.7,-1.5 -1.7,-2.5 1,1.2 1.9,1.8 5.3,1.7 3.3,-0.1 6.7,-1.2 8.7,-3.8 2.1,-2.5 3.4,-3.8 5.7,-4.7 2.2,-0.9 3.3,-2 3,-3 -0.4,-1.1 -1.2,-1.7 -2.8,-1.4 -1.6,0.4 -1.8,-0.5 -1.8,-0.5 0.1,0.2 0.3,0.3 0.5,0.3 3.1,0.1 3.5,-3.1 3.5,-3.1 2.2,0.9 2.7,6.5 1.6,7.5 z" class="s71" id="path200"/>
        <path d="m 805.8,611.6 c 0.1,0.6 -0.8,2.6 -2.4,4.3 -1.8,3.7 -3.6,6.7 -4.6,7.5 -1.2,0.8 -3.5,1.7 -5.9,2.4 -2.9,0.9 -6.9,-0.7 -7.1,-3.2 3.2,2.9 10.3,0.2 11.5,-1 1.2,-1.2 1.5,-3 3.3,-4.8 1.8,-1.9 3.8,-4.1 2.8,-5.8 -0.7,-1.2 -2.9,-1 -3.6,-0.7 -0.6,0.2 -1,-0.2 -1,-0.2 q 0.2,0 0.4,-0.1 c 0.6,-0.2 2.9,-2.3 2.6,-3.8 0,0 0.6,-0.3 1.1,0.4 0.5,0.6 2.8,3.3 2.9,5 z" class="s71" id="path201"/>
      </g>
    </g>
    <g transform="matrix(0.85244825,0,0,0.81613968,9.06117,164.13792)" id="g209">
      <path style="fill:url(#g22)" d="m 1167,654.5 -128.8,74.4 -10.8,-6.2 128.9,-74.3 20.1,-5.3 c 0.3,-0.1 0.6,0.3 0.3,0.5 z" class="s79" id="path202"/>
      <g id="g208">
        <path d="m 1156.5,636.2 17.4,-4.1 c 0.6,-0.2 1,0.5 0.6,1 l -11.8,13 z" class="s30" id="path203"/>
        <path d="m 1174.5,633.1 -4.6,5.1 c -0.1,-0.7 -0.3,-1.5 -0.7,-2.2 -0.3,-0.6 -0.7,-1.2 -1.1,-1.7 q -0.4,-0.4 -0.8,-0.7 l 6.6,-1.5 c 0.6,-0.2 1,0.5 0.6,1 z" class="s41" id="path204"/>
        <g id="g207">
          <path d="m 1035.7,706.7 1.6,2.9 4.3,7.5 119.8,-70 q 0,0 0,0 0.4,-0.2 0.7,-0.4 c 0.6,-0.5 1.1,-1.1 1.4,-1.9 0.5,-1.5 0.5,-3.4 -0.4,-5.1 q -0.5,-1 -1.1,-1.8 -0.1,0 -0.1,0 c -1.2,-1.4 -2.9,-2.1 -4.4,-1.9 q -0.7,0 -1.3,0.3 -0.1,0.1 -0.2,0.1 l -0.3,0.2 q 0,0 -0.1,0.1 0,0 0,0 z" class="s41" id="path205"/>
          <path d="m 1035.7,706.7 1.6,2.9 4.2,-1.3 120.5,-70.4 q 0,0 0,0 -0.1,0 -0.1,0 c -1.2,-1.4 -2.9,-2.1 -4.4,-1.9 q -0.7,0 -1.3,0.3 -0.1,0.1 -0.2,0.1 l -0.3,0.2 q 0,0 -0.1,0.1 0,0 0,0 z" class="s40" id="path206"/>
          <path d="m 1033.9,714.2 c 1.5,2.9 4.6,4.4 7,3.3 q 0.4,-0.2 0.7,-0.4 c 0.6,-0.5 1.1,-1.2 1.3,-1.9 0.6,-1.5 0.5,-3.4 -0.3,-5.2 -1.2,-2.5 -3.5,-3.9 -5.6,-3.7 q -0.7,0.1 -1.3,0.4 -0.1,0 -0.2,0.1 l -0.3,0.2 q 0,0 -0.1,0 c -1.9,1.4 -2.5,4.4 -1.2,7.2 z" class="s80" id="path207"/>
        </g>
      </g>
    </g>
    <g transform="matrix(0.85244825,0,0,0.81613968,9.06117,164.13792)" id="g241">
      <g id="g217">
        <path d="m 1121.9,731.2 c -3.2,1.9 -4.7,1.1 -8.5,2.6 -3.9,1.4 -11.3,6 -14.4,6.4 -3.1,0.3 -7,-1.4 -8.1,-4 -1.1,-2.7 2,-4.7 5.4,-6.5 3.4,-1.7 11.5,-7.7 11.5,-7.7 l 11.2,-1.1 c -0.7,0.7 -1.2,1.3 -1.2,1.3 l -1.1,6 5.2,1 c 0,0 0.8,0.9 0,2 z" class="s81" id="path209"/>
        <path d="m 1107.8,720.9 c 0,0 -8.1,6 -11.5,7.8 -3.4,1.7 -6.5,3.8 -5.4,6.4 1.1,2.7 5,4.4 8.1,4 3.1,-0.3 10.5,-4.9 14.4,-6.4 3.8,-1.4 5.3,-0.6 8.5,-2.6 1.1,-0.7 1.6,-6.2 -0.7,-10.4" class="s26" id="path210"/>
        <path d="m 1158.6,692.6 q 0,0.3 -0.1,0.5 c -0.6,1.4 -1.5,2.1 -4.2,3.8 -2.8,1.6 -4.7,6.1 -7,8.2 -2.3,2.1 -5.3,4 -8.1,4.1 -2.7,0.2 -6.1,-1.7 -6.5,-3.8 -0.3,-2.1 1,-2.8 2.3,-3.7 1.4,-0.9 5.5,-4.6 6.2,-5.6 0.8,-1 2.6,-4 2.6,-4 l 9.3,-7.6 c 1.3,0.7 2.4,1.6 3.2,2.7 -0.4,-0.1 -0.8,-0.1 -0.9,0 -0.1,0.2 -1,2.4 -1,2.4 0,0 0.7,1.2 1,1.3 0.2,0.1 2.3,0.2 2.3,0.2 0,0 0.8,0.6 0.9,1.5 z" class="s81" id="path211"/>
        <path d="m 1143.4,691.3 c 0,0 -1.8,3 -2.5,4 -0.8,1 -4.9,4.7 -6.2,5.6 -1.3,0.9 -2.7,1.5 -2.3,3.6 0.3,2.1 3.7,4 6.5,3.9 2.7,-0.1 5.7,-2 8,-4.1 2.4,-2.1 4.3,-6.6 7,-8.3 2.8,-1.6 3.7,-2.4 4.2,-3.7 0.6,-1.4 -1.1,-6.4 -5.4,-8.7" class="s26" id="path212"/>
        <path d="m 1153.7,683.3 c -2.3,8.7 -11.5,8.2 -11.5,8.2 0,0 -7.8,-8.2 -15.9,-17.6 -5.7,-6.6 -11.5,-13.9 -14.9,-19.4 q -1.2,-1.8 -1.9,-3.4 c -0.7,-1.4 -1.3,-3.4 -1.9,-5.7 -4.3,-16.9 -5.6,-53 -5.6,-53 l 24.1,12 -0.2,37.9 c 0,0 2.3,2.1 5.1,5.4 1.7,2 3.6,4.4 5.4,7 4.6,7 17.3,28.6 17.3,28.6 z" class="s64" id="path213"/>
        <path d="m 1153.7,683.3 c -2.3,8.7 -11.5,8.2 -11.5,8.2 0,0 -7.8,-8.2 -15.9,-17.6 l 1.4,-15.6 2.4,-10.6 h 0.9 c 1.7,2 3.6,4.4 5.4,7 4.6,7 17.3,28.6 17.3,28.6 z" class="s82" id="path214"/>
        <path d="m 1120.5,616 c 0,0 -3.3,17.1 -3.9,17.2 -0.3,0 -3.6,14.3 -5.2,21.3 q -1.2,-1.8 -1.9,-3.4 c -0.7,-1.4 -1.3,-3.4 -1.9,-5.7 1.5,-11.6 6.2,-37.4 6.2,-37.4 h 4.4 z" class="s66" id="path215"/>
        <path d="m 1146.4,609.4 c -1,5.2 -8.1,24.3 -13.3,38.4 -3.3,8.9 -5.2,18.1 -5.9,27.6 -1.2,16.5 -3.7,41.4 -4.5,46.2 0,0 -0.8,0.7 -2.2,1.3 -2.9,1.4 -8.3,2.7 -13.5,-2.4 0,0 -0.2,-52.9 0.1,-62.2 0.2,-9.2 9,-47.1 9,-47.1 0,0 -13.7,-4.4 -14.1,-18.8 l 37.9,5 6.5,0.8 c 0,0 1.6,3.4 0,11.2 z" class="s64" id="path216"/>
        <path d="m 1146.4,609.4 c -1,5.2 -8.1,24.3 -13.3,38.4 -3.3,8.9 -5.2,18.1 -5.9,27.6 -1.2,16.5 -3.7,41.4 -4.5,46.2 0,0 -0.8,0.7 -2.2,1.3 0.9,-13 3.5,-53.3 4,-60.8 0.6,-8.9 6.8,-23.6 10.6,-36.7 3.7,-13 3.1,-26.3 3.1,-26.3 l 1.7,-1.7 6.5,0.8 c 0,0 1.6,3.4 0,11.2 z" class="s66" id="path217"/>
      </g>
      <g id="g227">
        <path d="m 1148.4,598.3 c 0,0 0.3,0.8 0.4,2.1 0.1,0.4 -0.1,0.8 -0.4,1 -0.8,0.5 -2.5,1.5 -5.8,2.8 -3.8,1.4 -8.8,1.6 -12.4,1.3 -1.6,-0.2 -16.5,-3.5 -25.4,-9.1 -2.3,-1.4 -3.4,-4.1 -3,-6.7 v -0.1 c 0.3,-1.8 46.6,8.7 46.6,8.7 z" class="s83" id="path218"/>
        <path d="m 1155.4,541.5 c -1.2,4.7 -2.6,9.3 -4,14 -0.6,2.1 -1.4,4.3 -2.2,6.5 -2.9,7.7 -5.9,15.4 -4.2,23.8 0.7,3.3 2.4,7.5 2,10.9 -0.2,2 -0.5,3.7 -4.1,6 -0.7,0.5 -1.5,0.8 -2.3,1.1 l -0.5,0.1 -0.2,0.1 q -1.2,0.3 -2.3,0.5 c -1.9,0.3 -3.7,0.4 -5.6,0.2 q -1.3,-0.1 -2.6,-0.3 c -5.5,-1 -15.6,-3.5 -24.3,-8.9 q -0.1,-0.1 -0.1,-0.1 c -2.7,-1.6 -4.2,-5.6 -3.3,-11 0.4,-2.8 1,-6.6 1.6,-9.7 0.6,-3.6 0.9,-7.3 0.8,-11 q -0.1,-2.5 -0.1,-5 c -1.6,-10.3 -7.4,-31.1 -4.6,-36.7 1.8,-3.5 5,-9.6 5,-9.6 0,0 7.1,-1.9 10.7,-2.2 q 0.8,0 1.6,0 c 2.9,0.6 6,1.1 9.1,1.7 q 3,0.6 5.9,1.5 0.8,0.2 1.6,0.5 0.7,0.3 1.4,0.6 c 2.8,1.1 4.8,2 6.3,2.7 1.9,1 3.2,1.8 4.6,2.7 q 0.1,0 0.2,0.1 c 1.6,1 3.9,2.7 6,4.6 2.1,1.8 3.9,3.8 4.5,5.5 q 0.2,0.7 0.5,2.1 0,0.1 0,0.2 c 0.3,3 -0.7,6.3 -1.4,9.1 z" class="s26" id="path219"/>
        <path d="m 1156.8,532.2 -3.3,0.4 c -0.8,-6.6 -19.8,-16.5 -19.8,-16.5 l -0.4,-2.2 q 0.7,0.3 1.4,0.6 c 2.8,1.1 4.8,2 6.3,2.7 1.9,1 3.2,1.8 4.6,2.7 q 0.1,0 0.2,0.1 c 1.6,1 3.9,2.7 6,4.6 2.1,1.8 3.9,3.8 4.5,5.5 q 0.2,0.7 0.5,2.1 z" class="s37" id="path220"/>
        <path d="m 1133.2,503.5 v 8.2 c 0,0 -8.4,6.1 -12.9,5.2 -1.9,-0.4 -2.9,-2.9 -2.5,-6.3 l 4.1,-0.9 z" class="s84" id="path221"/>
        <path d="m 1119.3,516.4 -4.8,5.6 c 0,0 -0.2,-6.7 3,-10.2 3.2,-3.3 3.3,-0.4 3.3,-0.4 0,0 -3,3.4 -1.5,5 z" class="s1" id="path222"/>
        <path d="m 1110,492.5 c 0,0 -0.7,6.9 0.7,13.2 1.4,6.3 1.9,7.7 4.4,8.8 2.5,1.1 4.8,1.3 9.1,-1.5 4.3,-2.7 6.6,-7.2 6.6,-7.2 0,0 0.6,0.4 2.1,-1.3 2.4,-2.7 2.9,-4 2.9,-7.7 0,-3.7 -1,-8.2 -3.8,-13 -2.8,-4.8 -11.6,-3.3 -15.5,-1.2 -4,2 -5.8,5.8 -6.5,9.9 z" class="s85" id="path223"/>
        <path d="m 1106.5,492.8 c 4.4,7.7 15.2,2.7 15.2,2.7 0.9,3.3 3.2,3.6 4.3,4.2 1.1,0.6 1.4,3.9 1.4,3.9 h 1 c 0,0 0,-3.3 0.6,-4.9 0.5,-1.6 3.5,-2.9 5,-0.5 1.4,2.1 -0.2,4.5 -1.1,6.3 -0.3,2.8 0.3,4 0.3,4 0,0 1.7,-1.7 2.8,-5 1.1,-3.4 1.9,-10.4 0,-17.9 q -0.3,-1.2 -0.9,-2.2 c -3.4,-5.6 -12.9,-6.7 -16.6,-5.4 -3.2,1.1 -11.2,4.7 -12.7,9.9 -0.4,1.5 -0.3,3.2 0.7,4.9 z" class="s62" id="path224"/>
        <path d="m 1106.2,646.5 q 0.1,0.6 0.2,1.2 -0.1,-0.7 -0.2,-1.2 z" class="s86" id="path225"/>
        <path d="m 1133.2,510.8 c 0,0 0.5,0.7 0.9,1.7 0.3,0.9 0.6,2 0.6,2 0,0 -3.4,7 -12.9,10.1 l -1.1,-7.7 c 0,0 8.3,-1.1 12.5,-6.1 z" class="s1" id="path226"/>
        <path d="m 1106.5,492.8 c 4.4,7.7 15.2,2.7 15.2,2.7 0.9,3.3 3.2,3.6 4.3,4.2 1.1,0.6 1.4,3.9 1.4,3.9 h 1 c 0,0 0,-3.3 0.6,-4.9 0.5,-1.6 3.5,-2.9 5,-0.5 1.4,2.1 -0.2,4.5 -1.1,6.3 -0.3,2.8 0.3,4 0.3,4 0,0 1.7,-1.7 2.8,-5 1.1,-3.4 1.9,-10.4 0,-17.9 q -0.3,-1.2 -0.9,-2.2 c -1.9,1.6 -7.1,5.9 -12.6,8.2 -6.8,2.8 -12.7,2.4 -14.4,1 -2.6,-2.1 -2.3,-4.7 -2.3,-4.7 -0.4,1.5 -0.3,3.2 0.7,4.9 z" class="s87" id="path227"/>
      </g>
      <g id="g228">
        <path d="m 1143.7,609.8 c 0,0 -0.2,4.1 -0.6,5 -0.2,0.5 -0.5,1 -0.8,1.5 -0.5,0.8 -2.7,4.7 -3,6.9 -0.2,1.5 0.7,5.6 1.2,6.5 q 0,0.1 0.2,0.2 0.1,0.1 0.3,0.1 c 1.4,-0.3 1.4,-1.9 1.3,-3 0,-0.6 0,-2.4 0.3,-2.4 1.6,1 1.8,5 2,6.6 0.4,2.2 -0.8,6.5 0.2,6.5 0.5,-0.1 3.8,-1.5 4.5,-2.9 1.1,-1.4 1.8,-3 2,-4.9 0.3,-2.2 -0.3,-4.2 -0.6,-6.3 -0.2,-1.4 -0.6,-2.9 -0.7,-4.9 -0.2,-1.2 0.3,-5.9 0.3,-5.9 z" class="s85" id="path228"/>
      </g>
      <path d="m 1145,585.8 c 0.7,3.3 2.4,7.5 2,10.9 -0.2,2 -0.5,3.7 -4.1,6 -0.7,0.5 -1.5,0.8 -2.3,1.1 l -0.5,0.1 c -0.4,-12.4 1.2,-32.9 1.2,-32.9 -2.7,-9.3 -2,-30.2 -2,-30.2 0,0 8.9,10.4 8.9,11.3 0,0.5 0.5,5.6 1,9.9 -2.9,7.7 -5.9,15.4 -4.2,23.8 z" class="s37" id="path229"/>
      <path d="m 1160.3,572.4 -9,42.1 c 0,0 -0.4,0.2 -1.2,0.4 -1.4,0.3 -4.1,0.4 -8,-1.4 0,0 0.9,-32.9 2,-42.6 0,0 -6.1,-23.6 -4.6,-34.2 1,-6.9 6.8,-9.2 11.5,-8.4 2.6,0.4 4.9,1.8 5.8,3.9 0,0 5.3,34.1 3.5,40.2 z" class="s26" id="path230"/>
      <path d="m 1098.1,556.4 q 0,0 0,-0.1 c 0,0 5.9,-12 7.5,-16.7 l -1.4,-27.1 c 0,0 -5.3,1 -10.1,11 -4.7,9.9 -14.9,34.5 -13.7,38.6 0,0 7.1,-5.8 17.7,-5.7 z" class="s26" id="path231"/>
      <g id="g239">
        <g id="g233">
          <path d="m 1131.1,550 v 32.2 q 0,0 0,0 c 0,0.2 0,0.7 -0.3,0.8 q 0,0 0,0.1 -0.1,0 -0.1,0 l -0.5,0.3 v -0.1 l -23.8,-13.8 v -34.3 l -0.5,-1.1 0.5,-0.3 23.2,13.6 c 0.9,0.5 1.5,1.5 1.5,2.6 z" class="s88" id="path232"/>
          <path d="m 1105.9,534.2 23.2,13.5 c 0.9,0.5 1.5,1.5 1.5,2.6 v 32.5 c 0,0.6 -0.7,1 -1.2,0.7 l -23.5,-13.7 z" class="s30" id="path233"/>
        </g>
        <path d="m 1098.6,538.4 7.3,-4.2 0.6,0.3 -0.3,8.3 z" class="s88" id="path234"/>
        <path d="m 1106.5,534.5 -7.2,4.3 v 5.7 l 7.2,-5.2 z" class="s89" id="path235"/>
        <path d="m 1106.5,535.5 -6.4,3.8 -0.8,34.3 22.2,13.3 7.2,-4.3 c 0.7,-0.4 1.1,-1.1 1.1,-1.8 v -30.5 c 0,-0.8 -0.5,-1.5 -1.1,-1.9 z" class="s1" id="path236"/>
        <g id="g238">
          <path d="m 1123.3,554.5 v 32.2 q 0,0 0,0 c 0,0.2 0,0.7 -0.3,0.9 q 0,0 0,0 -0.1,0 -0.1,0 l -0.5,0.4 v -0.2 L 1098.6,574 v -34.3 l -0.5,-1 0.5,-0.3 23.2,13.5 c 0.9,0.5 1.5,1.5 1.5,2.6 z" class="s88" id="path237"/>
          <path d="m 1098.1,538.7 23.2,13.5 c 0.9,0.5 1.5,1.5 1.5,2.6 v 32.5 c 0,0.6 -0.7,1 -1.2,0.7 l -23.5,-13.7 z" class="s30" id="path238"/>
        </g>
      </g>
      <path d="m 1132.2,570.4 c -0.1,-1 -0.9,-1.3 -0.9,-1.3 l -3.7,1.7 c 0.2,-0.3 1,-0.9 1.3,-1.2 0.8,-0.8 0.4,-1.6 0,-1.7 -0.4,-0.1 -3.7,1.4 -4.6,2 -0.4,0.2 -0.9,0.8 -1.2,1.2 q 0,0 0,0 c -0.7,0.7 -1.4,0.8 -1.8,0.8 l -3.3,-1.2 -3.5,2.7 0.8,4 c 0,0 6.3,3.4 8.2,3 6.3,-1.6 8.1,-4.7 8.1,-4.7 0.5,-0.9 0.7,-4.4 0.6,-5.3 z" class="s85" id="path239"/>
      <path d="m 1116.3,578.3 c 0,0 -0.3,-0.5 -0.4,-1.1 -0.3,-2.4 0.9,-6.3 4.1,-6.2 0,0 -11.9,-9 -21.9,-14.6 -0.6,-0.3 -6.3,-0.2 -10.6,1.3 -4.3,1.5 -7.1,4.4 -7.1,4.4 1.2,4.1 35.9,16.2 35.9,16.2 z" class="s26" id="path240"/>
      <path d="m 1160.3,572.4 -9,42.1 c 0,0 -0.4,0.2 -1.2,0.4 0.6,-3 7.5,-39.7 7.9,-45.9 0.3,-6.4 -7,-40.7 -7,-40.7 2.6,0.4 4.9,1.8 5.8,3.9 0,0 5.3,34.1 3.5,40.2 z" class="s37" id="path241"/>
    </g>
    <g transform="matrix(0.85244825,0,0,0.81613968,9.06117,164.13792)" id="g254">
      <path d="m 1074.8,567.2 q 0,0 0,0 l -0.2,-7.1 q 0,0 0,-0.1 v -0.3 0.1 c -0.6,-13.2 -19.1,-23.2 -41.6,-22.5 -22.6,0.6 -40.6,11.9 -40.2,25.1 l 0.2,7.2 c 0.2,5.1 2.9,9.6 7.5,13.3 l -8.6,5.4 c -1.1,-0.5 -2.3,-0.8 -3.4,-0.6 q -0.9,0.1 -1.8,0.4 -0.1,0.1 -0.2,0.2 l -0.4,0.2 c 0,0 -0.1,0.1 -0.1,0.1 -0.1,0 -0.1,0.1 -0.1,0.1 L 943,615 c 6.1,2.1 12.5,4.5 18.8,7.4 l 32,-19.6 q 0.5,-0.3 0.9,-0.6 c 0.9,-0.6 1.5,-1.5 1.9,-2.6 0.4,-1 0.5,-2.3 0.4,-3.5 l 11.5,-7.2 c 0.2,-0.1 0.4,-0.2 0.6,-0.3 0.1,-0.2 0.3,-0.3 0.4,-0.5 7,3 15.7,4.6 25.1,4.3 22,-0.6 39.6,-11.3 40.2,-24.1 l 0.1,0.1 z" class="s90" id="&lt;Compound Path&gt;"/>
      <path d="m 988.3,534.6 c 0,0 22.4,-24 41.8,-24.3 32.2,-0.4 43.4,21.8 43.4,21.8 0,0 -0.1,10.2 -0.4,11.4 -2.7,12.1 -20.1,21.9 -41.5,22.5 -21.4,0.7 -39.3,-8.1 -42.8,-20 q -0.5,-1.8 -0.5,-3.7 c -0.1,-2.4 0,-7.7 0,-7.7 z m 43.2,22.1 c 19.8,-0.6 35.6,-5.1 35.2,-16.7 -0.1,-3 -1.2,-5.9 -3.3,-8.4 -5.8,-7.2 -18.5,-12 -33.1,-11.6 -14.7,0.4 -27.1,6 -32.5,13.5 -1.9,2.7 -2.9,5.6 -2.8,8.6 0.4,11.6 16.7,15.2 36.5,14.6 z" class="s41" fill-rule="evenodd" id="path242"/>
      <g id="g245">
        <path style="fill:url(#g23)" d="m 993.4,534.6 c 0.3,11.9 17.3,21 38,20.4 20.6,-0.6 37,-10.7 36.7,-22.5 -0.4,-11.9 -17.4,-21 -38,-20.4 -20.6,0.6 -37.1,10.7 -36.7,22.5 z" class="s91" id="path243"/>
        <path d="m 1009.2,516.2 c 37.2,0.9 48.4,19.2 51.5,29.5 4.8,-3.7 7.5,-8.3 7.4,-13.3 -0.4,-11.8 -17.3,-20.5 -37.9,-19.9 -7.6,0.2 -15.1,1.4 -21,3.7 z" class="s78" id="path244"/>
        <path d="m 997.1,535.1 c 0.3,10.5 15.3,18.6 33.6,18 18.2,-0.5 32.8,-9.4 32.5,-19.9 q 0,-0.5 -0.1,-1 c -1,9.9 -15,18 -32.4,18.5 -17.7,0.6 -32.4,-7 -33.6,-17 q -0.1,0.7 0,1.4 z" class="s92" id="path245"/>
      </g>
      <path d="m 992,527.3 9.7,-10.1 27.9,-6.9 28.3,5.3 10.2,9.4 2.7,5.9 -4.1,1.4 c 0,0 -4.7,-19.2 -37,-18.2 -32.2,0.9 -35.9,20.4 -35.9,20.4 l -4.1,-1.2 z" class="s41" id="path246"/>
      <path d="m 1030.1,508.4 c 23.6,-0.7 43,9.9 43.4,23.7 q 0,1.9 -0.4,3.8 c -2.7,12.1 -20.1,21.9 -41.5,22.5 -21.4,0.6 -39.3,-8.1 -42.8,-20 q -0.5,-1.8 -0.5,-3.8 c -0.5,-13.8 18.3,-25.5 41.8,-26.2 z m 1.4,46 c 19.8,-0.6 35.6,-10.5 35.2,-22.1 -0.1,-3 -1.2,-5.8 -3.3,-8.4 -5.8,-7.2 -18.5,-12 -33.1,-11.5 -14.7,0.4 -27.1,5.9 -32.5,13.5 -1.9,2.6 -2.9,5.5 -2.8,8.6 0.4,11.6 16.7,20.5 36.5,19.9 z" class="s93" fill-rule="evenodd" id="path247"/>
      <path d="m 1030.1,508.4 c 23.6,-0.7 43,9.9 43.4,23.7 q 0,1.9 -0.4,3.8 c -2.7,12.1 -20.1,21.9 -41.5,22.5 -21.4,0.6 -39.3,-8.1 -42.8,-20 q -0.5,-1.8 -0.5,-3.8 c -0.5,-13.8 18.3,-25.5 41.8,-26.2 z m 1.4,46 c 19.8,-0.6 35.6,-10.5 35.2,-22.1 -0.1,-3 -1.2,-5.8 -3.3,-8.4 -5.8,-7.2 -18.5,-12 -33.1,-11.5 -14.7,0.4 -27.1,5.9 -32.5,13.5 -1.9,2.6 -2.9,5.5 -2.8,8.6 0.4,11.6 16.7,20.5 36.5,19.9 z" class="s40" fill-rule="evenodd" id="path248"/>
      <path d="m 983.1,564.2 0.9,1.2 q 0,0 0,0 l 3.6,5.4 1,1.4 16,-10 q 0.3,-0.1 0.6,-0.3 c 0.5,-0.4 0.8,-1 1.1,-1.6 q 0.1,-0.4 0.2,-1 c 0.2,-1 0,-2.1 -0.5,-3.1 -0.6,-1.3 -1.7,-2.3 -2.8,-2.7 q -0.9,-0.4 -1.8,-0.3 -0.5,0 -1,0.3 -0.1,0 -0.2,0 l -0.2,0.2 q 0,0 -0.1,0 z" class="s94" id="path249"/>
      <path d="m 983.1,564.2 0.9,1.2 q 0,0 0,0 l 19.2,-11.9 q -0.9,-0.4 -1.8,-0.3 -0.5,0 -1,0.3 -0.1,0 -0.2,0 l -0.2,0.2 q 0,0 -0.1,0 z" class="s1" id="path250"/>
      <path d="m 987.6,570.8 1,1.4 16,-10 q 0.3,-0.1 0.6,-0.3 c 0.5,-0.4 0.8,-1 1.1,-1.6 q 0.1,-0.4 0.2,-1 z" class="s30" id="path251"/>
      <path d="m 932.2,592.2 2.3,4.1 6,10.5 48.7,-30.1 q 0,0 0,0 0.6,-0.3 1,-0.7 c 0.9,-0.6 1.6,-1.5 2,-2.6 0.8,-2.1 0.7,-4.8 -0.5,-7.3 q -0.7,-1.4 -1.7,-2.4 0,0 0,-0.1 c -1.7,-1.9 -4.1,-2.9 -6.3,-2.7 q -0.9,0.1 -1.8,0.5 -0.1,0.1 -0.3,0.2 l -0.3,0.2 q -0.1,0 -0.2,0.1 0,0 -0.1,0.1 z" class="s41" id="path252"/>
      <path d="m 932.2,592.2 2.3,4.1 5.9,-1.8 49.7,-30.8 q 0,0 -0.1,0 0,0 0,-0.1 c -1.7,-1.9 -4.1,-2.9 -6.3,-2.7 q -0.9,0.1 -1.8,0.5 -0.1,0.1 -0.3,0.2 l -0.3,0.2 q -0.1,0 -0.2,0.1 0,0 -0.1,0.1 z" class="s40" id="path253"/>
      <path d="m 929.7,602.7 c 2,4.2 6.4,6.4 9.7,4.7 h 0.1 q 0.5,-0.2 1,-0.6 c 0.8,-0.7 1.5,-1.6 1.9,-2.7 0.8,-2.1 0.7,-4.7 -0.5,-7.2 -1.7,-3.5 -4.9,-5.6 -7.9,-5.2 q -1,0.1 -1.8,0.5 -0.2,0 -0.3,0.1 l -0.4,0.3 q -0.1,0 -0.1,0.1 c -2.8,1.9 -3.5,6.2 -1.7,10 z" class="s80" id="path254"/>
    </g>
    <g transform="matrix(0.85244825,0,0,0.81613968,9.06117,164.13792)" id="g296">
      <path d="m 878.6,716.4 v 2.2 q 0,0.6 -0.2,1.2 0,0 0,0 c 0,0.1 0,0.2 -0.1,0.2 0,0.1 0,0.2 -0.1,0.3 q 0,0.1 -0.1,0.2 -0.2,0.3 -0.4,0.6 -0.1,0.1 -0.2,0.2 -0.1,0.1 -0.2,0.2 -0.1,0.2 -0.3,0.3 c -0.5,0.5 -1.2,1.1 -2.2,1.5 -3.2,1.6 -6.6,2.8 -9,4.2 -0.7,0.5 -2.8,1.9 -2.8,1.9 0,0 -1.7,1.3 -3.1,2.2 -1.4,0.8 -4.3,2.2 -7.3,1.9 -2.8,-0.3 -4.2,-2.1 -4.4,-3.3 l 0.1,-1.7 10.7,-4 z" class="s86" id="path255"/>
      <path d="m 859.9,715.9 c 0,0 3.3,-0.1 8.6,-1 5.4,-0.9 9.1,-1.2 9.8,0.5 0.6,1.6 0.8,3.3 -4,6.6 -4.8,3.3 -8.5,3.6 -12.3,6.7 -2.8,2.3 -5.4,2.8 -8.3,3 -2.8,0.2 -4.7,-0.9 -5.4,-2 -1.4,-2.7 0.1,-7.9 0.1,-7.9 z" class="s26" id="path256"/>
      <path d="m 898,729.3 v 2 c 0,0.9 -0.5,1.7 -1.3,2.1 -1.8,1 -5.6,2.6 -11.1,3.3 -5.4,0.7 -7.2,0.9 -7.2,0.9 0,0 -2.3,0.2 -4,0.4 -1.7,0.2 -4.5,0.1 -5.7,-0.9 -0.3,-0.3 -0.5,-0.5 -0.7,-0.7 q 0,0 0,-0.1 c 0,0 0,0 0,0 q -0.2,-0.2 -0.3,-0.3 c -0.2,-0.4 -0.2,-0.9 -0.2,-1.1 q 0,-0.1 0,0 v -0.8 -0.4 l 3.9,-0.3 q 0.1,0 0.1,0 l 1.9,-0.1 1.8,-0.1 1.7,-0.2 z" class="s86" id="path257"/>
      <path d="m 882.3,724.4 c 0,0 2.3,2.2 5.1,2.2 2.7,0 8.1,-0.1 9.5,0.9 q 1,0.7 1.1,1.7 0,1 -0.8,2.1 c -1,1.5 -8,3.8 -13.2,4.2 -5.2,0.4 -5.5,0.4 -8,0.8 -2.5,0.4 -5.1,0.6 -6.6,-0.2 -2.7,-1.3 -2.9,-5.4 -1.3,-8.1 1.7,-2.7 14.2,-3.6 14.2,-3.6 z" class="s26" id="path258"/>
      <path d="m 853.7,529.3 -0.5,1 0.7,3.3 10.5,5.2 0.6,-0.1 1.7,-0.2 2.6,-0.3 v -3.6 c 0,-1.9 1,-3.7 2.7,-4.5 q 0.1,0 0.2,0 c 0.5,-0.2 1.1,-0.6 1.7,-1.2 l 0.2,-0.2 c 2,-2.1 3.8,-6.9 3.3,-17.4 -0.1,-1.9 -0.5,-5.1 -1.4,-6.7 -1.5,-2.9 -4.7,-4.9 -11.4,-3 -11.1,3.1 -16,8.1 -16.6,12.5 -0.5,4.3 5.7,15.2 5.7,15.2 z" class="s85" id="path259"/>
      <path d="m 869.3,538.2 v -3.6 c 0,-1.9 1,-3.7 2.7,-4.5 -0.5,0.3 -2.2,1.1 -4.5,2.3 -0.9,0.5 -0.8,3.4 -0.8,6.1 z" class="s84" id="path260"/>
      <path d="m 878.1,551.9 15.9,-9.3 -1,8.3 -9.4,10.1 z" class="s85" id="path261"/>
      <g id="g273">
        <g id="g263">
          <path d="m 887.2,557.5 20,10.2 c 0.6,0.4 1.4,0 1.6,-0.7 l 9.8,-31.1 c 0.3,-1.1 -0.2,-2.3 -1.2,-2.9 l -18.6,-9.5 c -1,-0.5 -2.2,0 -2.5,1.1 l -9.8,31.3 c -0.2,0.6 0.1,1.3 0.7,1.6 z" class="s14" id="path262"/>
          <path d="m 888.3,556.6 18.2,9.4 c 0.5,0.3 1.1,0 1.3,-0.5 l 9.1,-29.1 c 0.4,-1.4 0.3,-2 -1.1,-2.7 l -17.3,-9 c -0.5,-0.2 -1,0 -1.1,0.5 l -9.5,30.3 c -0.2,0.5 0,0.9 0.4,1.1 z" class="s13" id="path263"/>
        </g>
        <g style="opacity:0.5" id="g271">
          <path d="m 914.8,535.5 -0.3,1.1 -16.1,-8.3 0.4,-1 q 0,-0.1 0,-0.1 z" class="s60" id="path264"/>
          <path d="m 913.7,539.1 -0.4,1.1 -16,-8.2 0.3,-1.1 z" class="s60" id="path265"/>
          <path d="m 912.5,542.8 -0.3,1.1 -16.1,-8.3 0.4,-1.1 z" class="s60" id="path266"/>
          <path d="m 911.4,546.4 -0.4,1.2 -16,-8.3 0.3,-1.1 z" class="s60" id="path267"/>
          <path d="m 910.2,550.1 -0.3,1.1 -16.1,-8.2 0.4,-1.1 z" class="s60" id="path268"/>
          <path d="m 909.1,553.8 -0.4,1.1 -16,-8.3 0.3,-1.1 z" class="s60" id="path269"/>
          <path d="m 907.9,557.5 -0.3,1.1 -16.1,-8.3 0.4,-1.1 z" class="s60" id="path270"/>
          <path d="m 906.8,561.1 -0.3,1.1 -16.1,-8.2 0.3,-1.2 z" class="s60" id="path271"/>
        </g>
        <path d="m 903.7,561.8 3.6,3 0.6,0.6 c 0,0 0.9,-3.5 2.3,-4.8 0.5,-0.4 2,-1 2.8,-1.2 q 0.7,-0.2 1.2,-0.8 c 0.7,-1 1.7,-3.1 1.2,-6.7 -0.1,-0.7 -0.3,-1.2 -0.5,-1.6 q 0,0 0,0 c -0.5,-0.7 -1,-0.7 -1,-0.7 0,0 -2.4,1.7 -3.1,2.2 -0.6,0.5 -1.3,1.3 -1.9,0.7 -0.3,-0.4 1.5,-2.6 1.9,-3.6 0.5,-1 -0.4,-2.1 -0.8,-1.7 -0.4,0.4 -2.9,3.5 -3.9,6.1 -1,2.6 -2.4,8.5 -2.4,8.5 z" class="s85" id="path272"/>
        <path d="m 906.4,562.2 0.9,2.6 0.6,0.6 c 0,0 0.9,-3.5 2.3,-4.8 0.5,-0.4 2,-1 2.8,-1.2 q 0.7,-0.2 1.2,-0.8 c 0.7,-1 1.7,-3.1 1.2,-6.7 -0.1,-0.7 -0.3,-1.2 -0.5,-1.6 q 0,0 0,0 c 0,0 0,0.7 -1,1.5 -1,0.9 -2.5,1.7 -3.2,2.2 -0.7,0.4 -1.8,2 -2.4,3.6 -0.7,1.6 -1.9,4.6 -1.9,4.6 z" class="s84" id="path273"/>
      </g>
      <path d="m 842.9,628.9 c 2.5,13.5 4.3,30.4 4.3,30.4 0,0 -4.1,33.7 0.5,63 0.2,1.4 0.7,4.3 2.5,5.5 1,0.6 3.7,1 5.7,-0.1 q 0.2,0 0.3,-0.1 c 6.9,-3.8 6.2,-8.7 7.2,-12 0,-13 -1.4,-45.1 1.4,-52.2 l 2.5,-28.5 -0.9,-20.3 h -24.9 v 0.1 l -0.1,-0.1 c 0,0 -2.2,5.4 1.5,14.3 z" class="s86" id="path274"/>
      <path d="m 850.5,629.4 c 2.4,7.7 5.4,27.9 6,32.8 0,0 -2.3,38.7 -0.3,65.4 6.9,-3.8 6.2,-8.7 7.2,-12 0,-13 -1.4,-45.1 1.4,-52.2 l 2.5,-28.5 -0.9,-20.3 h -17.1 c 0,0 -1.1,7.1 1.2,14.8 z" class="s95" id="path275"/>
      <path d="m 852.1,621.3 c 0.8,3.5 2.4,8.4 5.4,13 q 0.7,1.1 1.3,2.2 c 0.1,0.3 1.3,4.9 2.8,11 1.6,6.1 3.4,13.8 4.7,20.3 -0.7,8.2 -2.8,36.9 1.1,61.7 0.3,1.8 1.5,3.2 3.3,3.7 0.8,0.2 1.7,0.4 2.7,0.3 0.7,0 1.5,-0.2 2.3,-0.5 4.1,-1.7 7,-8.3 7,-8.3 0,0 0.1,-41.2 2.3,-52 0.4,-2.1 0.6,-4.2 0.7,-6.3 0.4,-6.6 1.1,-18.7 1.4,-23.8 0.4,-9.8 0.4,-18 0.1,-21.7 l -20.4,0.2 z" class="s86" id="path276"/>
      <path d="m 866.8,621.1 c 0.1,1.2 0.2,2 0.2,2 0,0 0.2,5.2 2.8,12.9 2.6,7.7 5.2,26 5.4,32.8 0.3,6.3 -3,36.4 -1.8,64.7 0.7,0 1.5,-0.2 2.3,-0.5 4.1,-1.7 7,-8.3 7,-8.3 0,0 0.1,-41.2 2.3,-52 0.4,-2.1 0.6,-4.2 0.7,-6.3 0.4,-6.6 1.1,-18.7 1.4,-23.8 0.4,-9.8 0.4,-18 0.1,-21.7 z" class="s95" id="path277"/>
      <path d="m 838.9,563.8 c 3.3,10 5.2,26.4 3.2,33.2 -2,6.9 -3.2,16.6 -3.2,16.6 1.9,5.1 19.3,16.2 29,17.1 q 1.8,0.1 3.6,-0.1 c 8.5,-1.3 16.5,-8.9 16.5,-8.9 0,0 -1.8,-28.1 -3,-46.1 -0.7,-12 -2.5,-19.4 -3.6,-23.1 -0.5,-1.8 -0.9,-2.7 -0.9,-2.7 -1.1,-1.3 -4.1,-3.6 -8,-6.2 q -0.1,0 -0.1,0 c -2.6,-1.8 -5.6,-3.6 -8.6,-5.4 -4,-2.3 -8,-4.5 -11.3,-6.2 q -0.5,-0.2 -1,-0.5 c -2.3,-1.1 -4.1,-1.8 -5,-2 -4.6,-0.8 -10.7,1.6 -12.5,9.9 -1.9,8.2 1.7,14.4 4.9,24.4 z" class="s26" id="path278"/>
      <path d="m 872.5,596.9 c 0.6,7.7 -0.6,26.8 -1,33.7 8.5,-1.3 16.5,-8.9 16.5,-8.9 0,0 -1.8,-28.1 -3,-46.1 -0.7,-12 -2.5,-19.4 -3.6,-23.1 -0.9,-1 -1.5,-1.7 -1.5,-1.7 h -11.3 c 0,0 -5.9,1.2 -3.7,14.6 2.1,13.3 6.9,22.1 7.6,31.5 z" class="s96" id="path279"/>
      <path d="" class="s97" id="path280"/>
      <path d="m 851.4,535.7 c 1.7,2.4 7.8,5.8 10.7,6.4 2.8,0.6 5.1,0.3 6.4,0.3 1.9,-0.1 3.4,1 3.9,1.2 q 0,0 0.1,0 0,0 0,0 l -1.7,-2.5 -1.9,-1.3 c 0,0 -2.9,-1 -3.5,-1.3 -0.2,-0.1 -0.8,-0.2 -1.6,-0.3 -1.7,-0.2 -4.2,-0.3 -4.5,-0.4 -0.6,-0.1 -5,-3.1 -5.2,-3.2 -0.1,-0.1 -0.9,-1.5 -1.6,-2.6 q -0.5,-0.2 -1,-0.5 c -0.7,0.8 -1.5,2.4 -0.1,4.2 z" class="s98" id="path281"/>
      <path d="m 845.1,514.5 c 1,5.7 5.8,14.7 8.3,15.5 1.5,0.5 2.8,0.7 4,0.8 1.9,0.1 3.6,-1.3 4,-3.2 0.3,-1.6 0.8,-3.6 1.6,-5.1 1.8,-3.2 4,-4.9 5.1,-4.3 1.2,0.6 1,2.6 1,2.6 h 0.8 c 0,0 0,-0.6 0.1,-1.5 0.1,-0.9 0.2,-1.9 0.3,-2.8 0,-2.1 0.6,-4.2 1.9,-5.9 0.8,-1.1 1.8,-2.7 2.8,-5.1 0.6,-1.6 0.8,-3.1 0.7,-4.5 -0.5,-4.4 -2.3,-6.2 -4,-7.5 -5.5,-4 -17.1,3.5 -21.4,7.1 -2.3,2 -4,4.2 -4.8,6.8 v 0.1 q -1,3.1 -0.4,7 z" class="s99" id="path282"/>
      <path d="m 852.2,531.3 1,-1 c 7,7.6 16.1,7.9 16.1,7.9 0,0 2.5,2.5 3.2,5.4 l -1.4,-0.9 c -0.8,-0.5 -1.7,-0.8 -2.6,-1 -0.5,-0.1 -1.8,-0.1 -1.8,-0.1 -5.7,-0.1 -11.4,-4.1 -14.4,-6.6 -1.2,-0.9 -1.2,-2.7 -0.1,-3.7 z" class="s1" id="path283"/>
      <path d="" class="s100" id="path284"/>
      <path d="" class="s100" id="path285"/>
      <path d="m 878.1,721.1 c -0.1,0.2 -0.3,0.3 -0.4,0.5 q 0.2,-0.3 0.4,-0.5 z" class="s101" id="path286"/>
      <path d="m 877.5,721.9 c 0.1,-0.1 0.1,-0.2 0.2,-0.3 q -0.1,0.2 -0.4,0.5 0.1,-0.1 0.2,-0.2 z" class="s101" id="path287"/>
      <path d="m 908.5,563.5 q 0,0 0,0 c -0.1,0.5 -1.8,5.7 -2.7,9 -1,3.1 -4,14.6 -6.5,20.1 q -0.1,0.1 -0.2,0.2 -0.2,0.4 -0.3,0.7 0,0.2 -0.1,0.3 c 0,0 0,0 0,0 q -0.2,0.3 -0.3,0.6 c -1,1.8 -2.7,3.2 -4.9,3.5 h -0.2 c -3.5,0 -11.7,-14.8 -14.1,-19.3 1,-0.6 2.2,-1.4 3.5,-2.4 2.4,-1.7 5,-4 7,-7 1.2,2.8 3.7,6.8 4.8,9.4 0,0 0.1,-0.4 0.3,-1 0.8,-1.9 3.1,-6.6 4.9,-9.1 2.7,-3.7 4.4,-8.7 4.6,-9.2 0,0.1 0.1,0.6 1.4,0.8 0.4,0 0.8,0.4 1.2,0.9 0.4,0.4 0.8,1 1.2,1.6 0,0 0.1,0.1 0.1,0.2 0.1,0.2 0.2,0.4 0.3,0.7 z" class="s85" id="path288"/>
      <path d="m 908.5,563.5 q 0,0 0,0 c -0.1,0.5 -1.8,5.7 -2.7,9 -1,3.1 -4,14.6 -6.5,20.1 q -0.1,0.1 -0.2,0.2 -0.2,0.4 -0.3,0.7 0,0.2 -0.1,0.3 c 0,0 0,0 0,0 q -0.2,0.3 -0.3,0.6 c -1,1.8 -2.7,3.2 -4.9,3.5 h -0.2 c -3.5,0 -11.7,-14.8 -14.1,-19.3 1,-0.6 2.2,-1.4 3.5,-2.4 2.4,4.5 9.5,17.3 12.1,17.3 1.3,0 3.9,-8.3 5.8,-13.2 2,-5 6.3,-19.3 6.3,-19.3 0.4,0.4 0.8,1 1.2,1.6 0,0 0.1,0.1 0.1,0.2 0.1,0.2 0.2,0.4 0.3,0.7 z" class="s84" id="path289"/>
      <path d="m 891.4,569.8 c -3,4.5 -8.4,8.2 -11.3,10 -0.9,0.6 -1.6,1 -2,1.2 -0.6,-1 -9.6,-15 -10.5,-19.9 q -0.2,-0.5 -0.2,-1 c -1.2,-6.4 0.8,-8.8 1,-9.1 q 0.1,-0.1 0.2,-0.2 c 4,-4.8 10.6,-5 14.4,2.2 1.7,3.3 5.3,9.9 8.4,16.8 z" class="s26" id="path290"/>
      <path d="m 845.1,514.5 c 1,5.7 5.8,14.7 8.3,15.5 1.5,0.5 2.8,0.7 4,0.8 1.9,0.1 3.6,-1.3 4,-3.2 0.3,-1.6 0.8,-3.6 1.6,-5.1 1.8,-3.2 4,-4.9 5.1,-4.3 1.2,0.6 1,2.6 1,2.6 h 0.8 c 0,0 0,-0.6 0.1,-1.5 0.1,-0.9 0.2,-1.9 0.3,-2.8 0,-2.1 0.6,-4.2 1.9,-5.9 0.8,-1.1 1.8,-2.7 2.8,-5.1 0.6,-1.6 0.8,-3.1 0.7,-4.5 -0.6,1.4 -5.2,12.2 -18.1,14.9 -13.5,2.8 -12.2,-7.9 -12.1,-8.4 q -1,3.1 -0.4,7 z" class="s102" id="path291"/>
      <g id="g295">
        <path d="m 880.8,615.9 c -1.1,2 -5,4.9 -9.6,4.2 q -1.2,-0.1 -2.5,-0.5 -0.2,0 -0.3,0 c -9.6,-2.2 -22.2,-8.9 -25.5,-13.6 -4.3,-6.1 -0.1,-39 6.4,-51.5 1.7,-3.3 5,-4.4 6.9,-4.1 0,0 12.8,4.8 16.9,9.8 4,4.9 11.1,49.4 7.7,55.7 z" class="s8" id="path292"/>
        <path d="m 880.8,615.9 c -1.1,2 -5,4.9 -9.6,4.2 q -1.2,-0.1 -2.5,-0.5 c 3,0.8 5.2,-2.6 5.2,-5 0,-2.4 -3,-39 -6.4,-49.2 -1,-3.1 -14.1,-9 -18.2,-10.9 1.7,-3.3 5,-4.4 6.9,-4.1 0,0 12.8,4.8 16.9,9.8 4,4.9 11.1,49.4 7.7,55.7 z" class="s103" id="path293"/>
        <path d="m 861.4,552.9 c 0,0 2.7,-5.1 5.9,-7.1 3.2,-2.1 6.3,-1.6 6.3,-1.6 l 4.7,3.4 c 0,0 -2.7,-0.1 -5.7,2.1 -1.8,1.3 -4.8,6.5 -4.8,6.5 z" class="s103" id="path294"/>
        <path d="m 886.2,592 c 0,0 -0.8,5.7 -6.3,9.5 l 0.9,7.3 c 0,0 3,-1.8 6,-8.1 z" class="s103" id="path295"/>
      </g>
    </g>
  </g>
  <g id="DESIGNED BY FREEPIK">
    <g id="g318">
      <g id="g307">
        <g id="g300">
          <path d="m 694.2,924.4 q -1.3,1.3 -2.2,2.9 l -0.9,-0.5 c -0.2,-0.6 -0.7,-1 -1.4,-1 -0.6,0.1 -1.1,0.7 -1,1.4 0.1,0.6 0.7,1.1 1.3,1 q 0.2,0 0.4,-0.1 l 0.9,0.5 q -0.8,1.7 -1.1,3.5 l 1.5,0.3 c 0.5,-2.7 1.7,-5.1 3.6,-7 z" class="s104" id="path296"/>
          <path d="m 705.2,919.7 q -0.5,0 -1,0.1 l -0.2,-1.3 c 0.4,-0.3 0.6,-0.8 0.5,-1.3 0,-0.7 -0.8,-1.3 -1.5,-1.2 -0.8,0.1 -1.4,0.8 -1.3,1.6 0.1,0.5 0.4,0.9 0.8,1.1 l 0.2,1.2 q -2.2,0.4 -4.2,1.3 l 0.7,1.4 q 2.8,-1.3 6,-1.3 1.5,0 2.9,0.3 l 0.4,-1.5 q -1.7,-0.4 -3.3,-0.4 z" class="s104" id="path297"/>
          <path d="m 718.4,924.8 c 0.7,0 1.1,-0.6 1,-1.3 0,-0.7 -0.6,-1.1 -1.3,-1.1 -0.6,0.1 -1.1,0.7 -1.1,1.3 l -0.8,0.7 q -1.3,-1.3 -2.8,-2.3 l -0.8,1.3 c 2.2,1.4 4,3.4 5.1,5.8 l 1.4,-0.6 q -0.8,-1.6 -1.9,-3.1 l 0.8,-0.7 q 0.2,0.1 0.4,0 z" class="s104" id="path298"/>
          <path d="m 704.1,940.2 q -1.2,0 -2.3,0 c -1.8,0 -3.5,-0.1 -5,-0.3 -0.8,-0.2 -1.7,-0.3 -2.5,-0.6 2.1,3.7 6.1,6.2 10.8,6.2 5.7,0 10.5,-3.8 11.9,-9 q -2.1,1.4 -5,2.3 c -2.3,0.7 -5.1,1.2 -7.9,1.4 z" class="s104" id="path299"/>
          <path d="m 717.2,933.2 q 0.1,0.5 0.1,1.1 c -2.7,2.4 -7.5,4 -13.3,4.3 -5.3,0.4 -9.4,-0.4 -10.7,-1.4 q -0.3,-1.3 -0.3,-2.5 c 0,-6.6 5.5,-11.9 12.2,-11.9 6.1,0 11.3,4.4 12,10.4 z m -12.6,-1.1 c 0,-2 -1.7,-3.7 -3.7,-3.7 -2.1,0 -3.7,1.7 -3.7,3.7 0,2 1.6,3.7 3.7,3.7 2,0 3.7,-1.7 3.7,-3.7 z m 8.5,-0.8 c 0,-1.5 -1.3,-2.7 -2.8,-2.7 -1.5,0 -2.7,1.2 -2.7,2.7 0,1.5 1.2,2.7 2.7,2.7 1.5,0 2.8,-1.2 2.8,-2.7 z" class="s104" fill-rule="evenodd" id="path300"/>
        </g>
        <path d="m 737.2,926.5 c -0.6,-0.2 -1.6,-0.6 -2.8,-0.5 -1.1,0.2 -1.7,0.7 -1.7,2.1 v 1.7 h 4.5 v 3.4 h -4.5 v 10.9 h -3.8 v -10.9 h -2.7 v -3.4 h 2.7 V 928 c 0,-3.4 1.8,-5.6 5.1,-5.6 1.3,0 2.3,0.3 3.2,0.7 z" class="s104" id="path301"/>
        <path d="m 746.6,933.2 q -0.5,-0.1 -1.1,-0.1 c -1.7,0 -3,1.1 -3,3.2 v 7.8 h -3.8 v -14.3 h 3.7 v 1.6 c 0.9,-1.4 2.3,-2 4,-2 0.9,0 1.7,0.3 2.2,0.7 z" class="s104" id="path302"/>
        <path d="m 761.9,936.9 c 0,0.5 0,1 0,1.3 h -10.2 c 0.4,2.1 1.9,3 3.7,3 1.2,0 2.6,-0.5 3.6,-1.4 l 2.3,2.5 c -1.7,1.5 -3.7,2.2 -6.1,2.2 -4.4,0 -7.5,-3 -7.5,-7.5 0,-4.5 3,-7.6 7.3,-7.6 4.1,0 6.9,3.1 6.9,7.5 z m -10.2,-1.3 h 6.4 c -0.4,-1.8 -1.5,-2.9 -3.2,-2.9 -1.8,0 -2.9,1.1 -3.2,2.9 z" class="s104" fill-rule="evenodd" id="path303"/>
        <path d="m 777.2,936.9 c 0,0.5 0,1 0,1.3 H 767 c 0.4,2.1 1.9,3 3.7,3 1.2,0 2.6,-0.5 3.6,-1.4 l 2.3,2.5 c -1.7,1.5 -3.7,2.2 -6.1,2.2 -4.4,0 -7.5,-3 -7.5,-7.5 0,-4.5 3,-7.6 7.3,-7.6 4.1,0 6.9,3.1 6.9,7.5 z M 767,935.6 h 6.4 c -0.4,-1.8 -1.5,-2.9 -3.2,-2.9 -1.8,0 -2.9,1.1 -3.2,2.9 z" class="s104" fill-rule="evenodd" id="path304"/>
        <path d="m 793.9,936.9 c 0,4.4 -3,7.6 -6.9,7.6 -1.9,0 -3.3,-0.8 -4.2,-1.9 v 7.4 h -3.9 v -20.2 h 3.8 v 1.6 c 0.9,-1.2 2.3,-2 4.3,-2 3.9,0 6.9,3.2 6.9,7.5 z m -11.3,0 c 0,2.3 1.5,4 3.7,4 2.2,0 3.7,-1.8 3.7,-4 0,-2.1 -1.5,-3.9 -3.7,-3.9 -2.2,0 -3.7,1.7 -3.7,3.9 z" class="s104" fill-rule="evenodd" id="path305"/>
        <path d="m 800.1,925.1 c 0,1.4 -1,2.4 -2.4,2.4 -1.4,0 -2.5,-1 -2.5,-2.4 0,-1.4 1.1,-2.5 2.5,-2.5 1.4,0 2.4,1.1 2.4,2.5 z m -0.5,19 h -3.8 v -14.3 h 3.8 z" class="s104" id="path306"/>
        <path d="m 806.1,934.9 5.4,-5.1 h 4.7 l -7,6.7 7,7.6 h -4.7 l -5.4,-5.8 v 5.8 h -3.9 v -21.3 h 3.9 z" class="s104" id="path307"/>
      </g>
      <g id="g317">
        <path d="m 542.8,944 v -2.1 c -1,1.4 -2.8,2.4 -4.7,2.4 -3.7,0 -6.3,-2.8 -6.3,-7.4 0,-4.5 2.5,-7.4 6.3,-7.4 1.9,0 3.6,0.9 4.7,2.5 v -7.5 H 545 V 944 Z m 0,-3.8 v -6.5 c -0.8,-1.2 -2.5,-2.2 -4.2,-2.2 -2.9,0 -4.6,2.3 -4.6,5.4 0,3.2 1.7,5.5 4.6,5.5 1.7,0 3.4,-1 4.2,-2.2 z" class="s104" fill-rule="evenodd" id="path308"/>
        <path d="m 547.9,936.9 c 0,-4.1 2.9,-7.4 6.9,-7.4 4.3,0 6.8,3.3 6.8,7.6 v 0.5 h -11.4 c 0.2,2.7 2,4.9 5.1,4.9 1.6,0 3.2,-0.6 4.3,-1.8 l 1.1,1.5 c -1.4,1.4 -3.3,2.1 -5.6,2.1 -4.2,0 -7.2,-3 -7.2,-7.4 z m 6.9,-5.6 c -3,0 -4.5,2.6 -4.6,4.7 h 9.3 c -0.1,-2.1 -1.5,-4.7 -4.7,-4.7 z" class="s104" fill-rule="evenodd" id="path309"/>
        <path d="m 563.2,942.1 1.2,-1.6 c 0.9,1.1 2.7,2.1 4.6,2.1 2.2,0 3.4,-1.1 3.4,-2.5 0,-3.4 -8.8,-1.3 -8.8,-6.5 0,-2.2 1.9,-4.1 5.3,-4.1 2.4,0 4.1,0.9 5.2,2 l -1,1.6 c -0.9,-1.1 -2.4,-1.8 -4.2,-1.8 -2,0 -3.2,0.9 -3.2,2.2 0,3.1 8.8,1.1 8.8,6.6 0,2.3 -1.9,4.2 -5.6,4.2 -2.3,0 -4.3,-0.7 -5.7,-2.2 z" class="s104" id="path310"/>
        <path d="m 577,926.4 c 0,-0.9 0.6,-1.5 1.4,-1.5 0.8,0 1.5,0.6 1.5,1.5 0,0.8 -0.7,1.4 -1.5,1.4 -0.8,0 -1.4,-0.6 -1.4,-1.4 z m 0.3,17.6 v -14.2 h 2.2 V 944 Z" class="s104" id="path311"/>
        <path d="m 583.2,947.6 1.1,-1.6 c 1.1,1.4 2.6,1.9 4.6,1.9 2.3,0 4.5,-1.1 4.5,-4.2 v -2 c -1,1.4 -2.7,2.5 -4.7,2.5 -3.7,0 -6.3,-2.8 -6.3,-7.4 0,-4.5 2.6,-7.3 6.3,-7.3 1.9,0 3.6,0.9 4.7,2.5 v -2.2 h 2.2 v 13.8 c 0,4.7 -3.3,6.1 -6.7,6.1 -2.4,0 -4.1,-0.4 -5.7,-2.1 z m 10.2,-7.7 v -6.2 c -0.7,-1.2 -2.4,-2.2 -4.2,-2.2 -2.8,0 -4.5,2.2 -4.5,5.3 0,3.2 1.7,5.4 4.5,5.4 1.8,0 3.5,-1 4.2,-2.3 z" class="s104" fill-rule="evenodd" id="path312"/>
        <path d="m 608.8,944 v -9.3 c 0,-2.5 -1.2,-3.2 -3.1,-3.2 -1.8,0 -3.4,1 -4.2,2.2 V 944 h -2.2 v -14.2 h 2.2 v 2.1 c 1,-1.2 2.9,-2.4 5,-2.4 3,0 4.5,1.5 4.5,4.6 v 9.9 z" class="s104" id="path313"/>
        <path d="m 613.9,936.9 c 0,-4.1 2.9,-7.4 6.9,-7.4 4.3,0 6.8,3.3 6.8,7.6 v 0.5 h -11.4 c 0.2,2.7 2,4.9 5.1,4.9 1.6,0 3.2,-0.6 4.3,-1.8 l 1.1,1.5 c -1.4,1.4 -3.3,2.1 -5.6,2.1 -4.2,0 -7.2,-3 -7.2,-7.4 z m 6.9,-5.6 c -3,0 -4.5,2.6 -4.6,4.7 h 9.3 c -0.1,-2.1 -1.5,-4.7 -4.7,-4.7 z" class="s104" fill-rule="evenodd" id="path314"/>
        <path d="m 640.7,944 v -2.1 c -1.1,1.4 -2.8,2.4 -4.8,2.4 -3.7,0 -6.3,-2.8 -6.3,-7.4 0,-4.5 2.6,-7.4 6.3,-7.4 1.9,0 3.7,0.9 4.8,2.5 v -7.5 h 2.2 V 944 Z m 0,-3.8 v -6.5 c -0.8,-1.2 -2.5,-2.2 -4.3,-2.2 -2.8,0 -4.5,2.3 -4.5,5.4 0,3.2 1.7,5.5 4.5,5.5 1.8,0 3.5,-1 4.3,-2.2 z" class="s104" fill-rule="evenodd" id="path315"/>
        <path d="m 653.4,944 v -19.5 h 2.2 v 7.5 c 1.1,-1.6 2.8,-2.5 4.8,-2.5 3.6,0 6.3,2.9 6.3,7.4 0,4.6 -2.7,7.4 -6.3,7.4 -2,0 -3.8,-1 -4.8,-2.4 v 2.1 z m 6.4,-1.6 c 2.9,0 4.6,-2.3 4.6,-5.5 0,-3.1 -1.7,-5.4 -4.6,-5.4 -1.7,0 -3.5,1 -4.2,2.2 v 6.5 c 0.7,1.2 2.5,2.2 4.2,2.2 z" class="s104" fill-rule="evenodd" id="path316"/>
        <path d="m 669.1,947.5 c 0.3,0.2 0.8,0.3 1.2,0.3 0.9,0 1.6,-0.3 2.1,-1.5 l 0.9,-2.2 -5.9,-14.3 h 2.4 l 4.7,11.6 4.7,-11.6 h 2.4 l -7.1,17.1 c -0.9,2 -2.3,2.8 -4.2,2.8 -0.5,0 -1.2,0 -1.6,-0.2 z" class="s104" id="path317"/>
      </g>
    </g>
  </g>
</svg>